STARTFONT 2.1
FONT -FontForge-Bebas Neue-Book-R-Normal--15-140-75-75-P-55-ISO10646-1
SIZE 14 75 75
FONTBOUNDINGBOX 15 17 -3 -3
COMMENT "Generated by fontforge, http://fontforge.sourceforge.net"
COMMENT "Copyright 2019 The Bebas Neue Project Authors (https://github.com/dharmatype/Bebas-Neue)"
STARTPROPERTIES 40
FOUNDRY "FontForge"
FAMILY_NAME "Bebas Neue"
WEIGHT_NAME "Book"
SLANT "R"
SETWIDTH_NAME "Normal"
ADD_STYLE_NAME ""
PIXEL_SIZE 15
POINT_SIZE 140
RESOLUTION_X 75
RESOLUTION_Y 75
SPACING "P"
AVERAGE_WIDTH 55
CHARSET_REGISTRY "ISO10646"
CHARSET_ENCODING "1"
FONTNAME_REGISTRY ""
CHARSET_COLLECTIONS "ISO8859-2 ISO8859-9 ISO8859-4 Symbol ISO10646-1"
FONT_NAME "BebasNeue-Regular"
FACE_NAME "Bebas Neue Regular"
COPYRIGHT "Copyright 2019 The Bebas Neue Project Authors (https://github.com/dharmatype/Bebas-Neue)"
FONT_VERSION "2.000"
FONT_ASCENT 12
FONT_DESCENT 3
UNDERLINE_POSITION -1
UNDERLINE_THICKNESS 2
X_HEIGHT 10
CAP_HEIGHT 10
RAW_ASCENT 800
RAW_DESCENT 200
NORM_SPACE 2
RELATIVE_WEIGHT 40
RELATIVE_SETWIDTH 50
SUPERSCRIPT_X 0
SUPERSCRIPT_Y 5
SUPERSCRIPT_SIZE 9
SUBSCRIPT_X 0
SUBSCRIPT_Y 1
SUBSCRIPT_SIZE 9
FIGURE_WIDTH 6
AVG_LOWERCASE_WIDTH 57
AVG_UPPERCASE_WIDTH 57
ENDPROPERTIES
CHARS 497
STARTCHAR nonmarkingreturn
ENCODING 13
SWIDTH 160 0
DWIDTH 2 0
BBX 1 1 0 0
BITMAP
00
ENDCHAR
STARTCHAR space
ENCODING 32
SWIDTH 160 0
DWIDTH 2 0
BBX 1 1 0 0
BITMAP
00
ENDCHAR
STARTCHAR exclam
ENCODING 33
SWIDTH 210 0
DWIDTH 3 0
BBX 1 11 1 0
BITMAP
80
80
80
80
80
80
80
80
00
80
80
ENDCHAR
STARTCHAR quotedbl
ENCODING 34
SWIDTH 336 0
DWIDTH 5 0
BBX 3 4 1 7
BITMAP
A0
A0
A0
A0
ENDCHAR
STARTCHAR numbersign
ENCODING 35
SWIDTH 412 0
DWIDTH 6 0
BBX 6 11 0 0
BITMAP
28
28
7C
7C
68
68
FC
F8
58
50
50
ENDCHAR
STARTCHAR dollar
ENCODING 36
SWIDTH 400 0
DWIDTH 6 0
BBX 4 12 1 -1
BITMAP
60
F0
90
80
C0
60
30
90
90
F0
60
60
ENDCHAR
STARTCHAR percent
ENCODING 37
SWIDTH 589 0
DWIDTH 9 0
BBX 7 11 1 0
BITMAP
C4
E8
A8
A8
B0
FE
5E
2A
2A
4E
4E
ENDCHAR
STARTCHAR ampersand
ENCODING 38
SWIDTH 417 0
DWIDTH 6 0
BBX 5 11 1 0
BITMAP
F0
F0
80
90
F8
F8
90
90
90
F0
F8
ENDCHAR
STARTCHAR quotesingle
ENCODING 39
SWIDTH 188 0
DWIDTH 3 0
BBX 1 4 1 7
BITMAP
80
80
80
80
ENDCHAR
STARTCHAR parenleft
ENCODING 40
SWIDTH 276 0
DWIDTH 4 0
BBX 3 13 1 -1
BITMAP
60
E0
80
80
80
80
80
80
80
80
80
E0
E0
ENDCHAR
STARTCHAR parenright
ENCODING 41
SWIDTH 276 0
DWIDTH 4 0
BBX 2 13 1 -1
BITMAP
80
C0
40
40
40
40
40
40
40
40
40
C0
C0
ENDCHAR
STARTCHAR asterisk
ENCODING 42
SWIDTH 422 0
DWIDTH 6 0
BBX 6 6 0 5
BITMAP
30
94
FC
30
68
48
ENDCHAR
STARTCHAR plus
ENCODING 43
SWIDTH 400 0
DWIDTH 6 0
BBX 6 5 0 3
BITMAP
30
FC
FC
30
30
ENDCHAR
STARTCHAR comma
ENCODING 44
SWIDTH 188 0
DWIDTH 3 0
BBX 1 4 1 -2
BITMAP
80
80
80
80
ENDCHAR
STARTCHAR hyphen
ENCODING 45
SWIDTH 270 0
DWIDTH 4 0
BBX 4 2 0 5
BITMAP
F0
F0
ENDCHAR
STARTCHAR period
ENCODING 46
SWIDTH 188 0
DWIDTH 3 0
BBX 1 2 1 0
BITMAP
80
80
ENDCHAR
STARTCHAR slash
ENCODING 47
SWIDTH 389 0
DWIDTH 6 0
BBX 6 11 0 0
BITMAP
0C
08
18
10
10
30
20
60
60
40
C0
ENDCHAR
STARTCHAR zero
ENCODING 48
SWIDTH 400 0
DWIDTH 6 0
BBX 6 11 0 0
BITMAP
78
78
48
CC
CC
CC
CC
CC
48
78
78
ENDCHAR
STARTCHAR one
ENCODING 49
SWIDTH 400 0
DWIDTH 6 0
BBX 4 11 1 0
BITMAP
30
F0
F0
30
30
30
30
30
30
30
30
ENDCHAR
STARTCHAR two
ENCODING 50
SWIDTH 400 0
DWIDTH 6 0
BBX 5 11 1 0
BITMAP
F0
F0
98
90
30
30
60
C0
80
F0
F0
ENDCHAR
STARTCHAR three
ENCODING 51
SWIDTH 400 0
DWIDTH 6 0
BBX 5 11 0 0
BITMAP
78
78
48
08
38
38
08
C8
48
78
78
ENDCHAR
STARTCHAR four
ENCODING 52
SWIDTH 400 0
DWIDTH 6 0
BBX 6 11 0 0
BITMAP
18
18
38
38
78
58
58
FC
FC
18
18
ENDCHAR
STARTCHAR five
ENCODING 53
SWIDTH 400 0
DWIDTH 6 0
BBX 4 11 1 0
BITMAP
F0
F0
80
A0
F0
90
10
90
90
F0
F0
ENDCHAR
STARTCHAR six
ENCODING 54
SWIDTH 400 0
DWIDTH 6 0
BBX 5 11 1 0
BITMAP
F0
F0
98
80
B0
F0
98
98
98
F0
F0
ENDCHAR
STARTCHAR seven
ENCODING 55
SWIDTH 400 0
DWIDTH 6 0
BBX 4 11 1 0
BITMAP
F0
F0
10
30
30
20
60
60
60
40
C0
ENDCHAR
STARTCHAR eight
ENCODING 56
SWIDTH 400 0
DWIDTH 6 0
BBX 6 11 0 0
BITMAP
78
78
CC
48
78
78
48
CC
CC
78
78
ENDCHAR
STARTCHAR nine
ENCODING 57
SWIDTH 400 0
DWIDTH 6 0
BBX 5 11 0 0
BITMAP
78
78
C8
C8
C8
78
78
08
C8
78
78
ENDCHAR
STARTCHAR colon
ENCODING 58
SWIDTH 188 0
DWIDTH 3 0
BBX 1 8 1 0
BITMAP
80
80
00
00
00
00
80
80
ENDCHAR
STARTCHAR semicolon
ENCODING 59
SWIDTH 188 0
DWIDTH 3 0
BBX 1 10 1 -2
BITMAP
80
80
00
00
00
00
80
80
80
80
ENDCHAR
STARTCHAR less
ENCODING 60
SWIDTH 400 0
DWIDTH 6 0
BBX 4 5 1 3
BITMAP
10
70
C0
E0
30
ENDCHAR
STARTCHAR equal
ENCODING 61
SWIDTH 400 0
DWIDTH 6 0
BBX 4 4 1 4
BITMAP
F0
F0
F0
F0
ENDCHAR
STARTCHAR greater
ENCODING 62
SWIDTH 400 0
DWIDTH 6 0
BBX 4 5 1 3
BITMAP
80
E0
30
70
C0
ENDCHAR
STARTCHAR question
ENCODING 63
SWIDTH 363 0
DWIDTH 5 0
BBX 5 11 0 0
BITMAP
70
F8
D8
D8
18
30
20
20
00
20
20
ENDCHAR
STARTCHAR at
ENCODING 64
SWIDTH 696 0
DWIDTH 10 0
BBX 10 13 0 -1
BITMAP
0600
1F80
30C0
6BC0
4F40
5B40
DB40
D240
DA80
5F80
6000
3F00
1F00
ENDCHAR
STARTCHAR A
ENCODING 65
SWIDTH 401 0
DWIDTH 6 0
BBX 6 11 0 0
BITMAP
30
30
38
78
78
58
48
48
78
CC
CC
ENDCHAR
STARTCHAR B
ENCODING 66
SWIDTH 404 0
DWIDTH 6 0
BBX 5 11 1 0
BITMAP
F0
F0
98
98
F0
F0
98
98
98
F8
F0
ENDCHAR
STARTCHAR C
ENCODING 67
SWIDTH 383 0
DWIDTH 6 0
BBX 4 11 1 0
BITMAP
F0
F0
90
90
80
80
80
90
90
F0
F0
ENDCHAR
STARTCHAR D
ENCODING 68
SWIDTH 406 0
DWIDTH 6 0
BBX 5 11 1 0
BITMAP
F0
F0
98
98
98
98
98
98
98
F0
F0
ENDCHAR
STARTCHAR E
ENCODING 69
SWIDTH 363 0
DWIDTH 5 0
BBX 4 11 1 0
BITMAP
F0
F0
80
80
F0
F0
80
80
80
F0
F0
ENDCHAR
STARTCHAR F
ENCODING 70
SWIDTH 344 0
DWIDTH 5 0
BBX 4 11 1 0
BITMAP
F0
F0
80
80
80
E0
E0
80
80
80
80
ENDCHAR
STARTCHAR G
ENCODING 71
SWIDTH 391 0
DWIDTH 6 0
BBX 5 11 0 0
BITMAP
78
78
48
C8
C0
D8
D8
C8
48
78
78
ENDCHAR
STARTCHAR H
ENCODING 72
SWIDTH 420 0
DWIDTH 6 0
BBX 5 11 1 0
BITMAP
98
98
98
98
F8
F8
98
98
98
98
98
ENDCHAR
STARTCHAR I
ENCODING 73
SWIDTH 192 0
DWIDTH 3 0
BBX 1 11 1 0
BITMAP
80
80
80
80
80
80
80
80
80
80
80
ENDCHAR
STARTCHAR J
ENCODING 74
SWIDTH 265 0
DWIDTH 4 0
BBX 3 11 0 0
BITMAP
20
20
20
20
20
20
20
20
20
E0
E0
ENDCHAR
STARTCHAR K
ENCODING 75
SWIDTH 414 0
DWIDTH 6 0
BBX 5 11 1 0
BITMAP
98
90
B0
A0
E0
E0
F0
B0
90
98
98
ENDCHAR
STARTCHAR L
ENCODING 76
SWIDTH 344 0
DWIDTH 5 0
BBX 4 11 1 0
BITMAP
80
80
80
80
80
80
80
80
80
F0
F0
ENDCHAR
STARTCHAR M
ENCODING 77
SWIDTH 538 0
DWIDTH 8 0
BBX 6 11 1 0
BITMAP
CC
CC
CC
CC
FC
F4
B4
B4
B4
B4
B4
ENDCHAR
STARTCHAR N
ENCODING 78
SWIDTH 427 0
DWIDTH 6 0
BBX 5 11 1 0
BITMAP
D8
D8
D8
F8
F8
B8
B8
B8
B8
98
98
ENDCHAR
STARTCHAR O
ENCODING 79
SWIDTH 400 0
DWIDTH 6 0
BBX 6 11 0 0
BITMAP
78
78
48
CC
CC
CC
CC
CC
48
78
78
ENDCHAR
STARTCHAR P
ENCODING 80
SWIDTH 386 0
DWIDTH 6 0
BBX 5 11 1 0
BITMAP
F0
F0
90
98
90
F0
E0
80
80
80
80
ENDCHAR
STARTCHAR Q
ENCODING 81
SWIDTH 400 0
DWIDTH 6 0
BBX 6 12 0 -1
BITMAP
78
78
48
CC
CC
CC
CC
CC
48
78
7C
0C
ENDCHAR
STARTCHAR R
ENCODING 82
SWIDTH 403 0
DWIDTH 6 0
BBX 5 11 1 0
BITMAP
F0
F0
90
98
90
F0
F0
98
98
98
98
ENDCHAR
STARTCHAR S
ENCODING 83
SWIDTH 372 0
DWIDTH 6 0
BBX 5 11 0 0
BITMAP
70
78
C8
C0
60
30
18
18
C8
F8
70
ENDCHAR
STARTCHAR T
ENCODING 84
SWIDTH 364 0
DWIDTH 5 0
BBX 5 11 0 0
BITMAP
F8
F8
30
30
30
30
30
30
30
30
30
ENDCHAR
STARTCHAR U
ENCODING 85
SWIDTH 402 0
DWIDTH 6 0
BBX 4 11 1 0
BITMAP
90
90
90
90
90
90
90
90
90
F0
F0
ENDCHAR
STARTCHAR V
ENCODING 86
SWIDTH 382 0
DWIDTH 6 0
BBX 6 11 0 0
BITMAP
CC
C8
48
48
58
78
78
70
70
30
30
ENDCHAR
STARTCHAR W
ENCODING 87
SWIDTH 557 0
DWIDTH 8 0
BBX 8 11 0 0
BITMAP
D9
D9
DB
5B
5F
5F
56
56
76
76
76
ENDCHAR
STARTCHAR X
ENCODING 88
SWIDTH 406 0
DWIDTH 6 0
BBX 6 11 0 0
BITMAP
CC
48
78
78
30
30
30
78
78
48
CC
ENDCHAR
STARTCHAR Y
ENCODING 89
SWIDTH 394 0
DWIDTH 6 0
BBX 6 11 0 0
BITMAP
CC
48
78
78
30
30
30
30
30
30
30
ENDCHAR
STARTCHAR Z
ENCODING 90
SWIDTH 362 0
DWIDTH 5 0
BBX 5 11 0 0
BITMAP
F8
F8
18
10
30
30
60
60
40
F8
F8
ENDCHAR
STARTCHAR bracketleft
ENCODING 91
SWIDTH 276 0
DWIDTH 4 0
BBX 3 13 1 -1
BITMAP
E0
E0
C0
C0
C0
C0
C0
C0
C0
C0
C0
E0
E0
ENDCHAR
STARTCHAR backslash
ENCODING 92
SWIDTH 389 0
DWIDTH 6 0
BBX 6 11 0 0
BITMAP
C0
40
60
60
20
30
10
10
18
08
0C
ENDCHAR
STARTCHAR bracketright
ENCODING 93
SWIDTH 276 0
DWIDTH 4 0
BBX 2 13 1 -1
BITMAP
C0
C0
40
40
40
40
40
40
40
40
40
C0
C0
ENDCHAR
STARTCHAR asciicircum
ENCODING 94
SWIDTH 400 0
DWIDTH 6 0
BBX 6 4 0 7
BITMAP
30
30
48
CC
ENDCHAR
STARTCHAR underscore
ENCODING 95
SWIDTH 300 0
DWIDTH 5 0
BBX 5 2 0 -1
BITMAP
F8
F8
ENDCHAR
STARTCHAR grave
ENCODING 96
SWIDTH 500 0
DWIDTH 8 0
BBX 3 2 2 12
BITMAP
C0
60
ENDCHAR
STARTCHAR a
ENCODING 97
SWIDTH 401 0
DWIDTH 6 0
BBX 6 11 0 0
BITMAP
30
30
38
78
78
58
48
48
78
CC
CC
ENDCHAR
STARTCHAR b
ENCODING 98
SWIDTH 404 0
DWIDTH 6 0
BBX 5 11 1 0
BITMAP
F0
F0
98
98
F0
F0
98
98
98
F8
F0
ENDCHAR
STARTCHAR c
ENCODING 99
SWIDTH 383 0
DWIDTH 6 0
BBX 4 11 1 0
BITMAP
F0
F0
90
90
80
80
80
90
90
F0
F0
ENDCHAR
STARTCHAR d
ENCODING 100
SWIDTH 406 0
DWIDTH 6 0
BBX 5 11 1 0
BITMAP
F0
F0
98
98
98
98
98
98
98
F0
F0
ENDCHAR
STARTCHAR e
ENCODING 101
SWIDTH 363 0
DWIDTH 5 0
BBX 4 11 1 0
BITMAP
F0
F0
80
80
F0
F0
80
80
80
F0
F0
ENDCHAR
STARTCHAR f
ENCODING 102
SWIDTH 344 0
DWIDTH 5 0
BBX 4 11 1 0
BITMAP
F0
F0
80
80
80
E0
E0
80
80
80
80
ENDCHAR
STARTCHAR g
ENCODING 103
SWIDTH 391 0
DWIDTH 6 0
BBX 5 11 0 0
BITMAP
78
78
48
C8
C0
D8
D8
C8
48
78
78
ENDCHAR
STARTCHAR h
ENCODING 104
SWIDTH 420 0
DWIDTH 6 0
BBX 5 11 1 0
BITMAP
98
98
98
98
F8
F8
98
98
98
98
98
ENDCHAR
STARTCHAR i
ENCODING 105
SWIDTH 192 0
DWIDTH 3 0
BBX 1 11 1 0
BITMAP
80
80
80
80
80
80
80
80
80
80
80
ENDCHAR
STARTCHAR j
ENCODING 106
SWIDTH 265 0
DWIDTH 4 0
BBX 3 11 0 0
BITMAP
20
20
20
20
20
20
20
20
20
E0
E0
ENDCHAR
STARTCHAR k
ENCODING 107
SWIDTH 414 0
DWIDTH 6 0
BBX 5 11 1 0
BITMAP
98
90
B0
A0
E0
E0
F0
B0
90
98
98
ENDCHAR
STARTCHAR l
ENCODING 108
SWIDTH 344 0
DWIDTH 5 0
BBX 4 11 1 0
BITMAP
80
80
80
80
80
80
80
80
80
F0
F0
ENDCHAR
STARTCHAR m
ENCODING 109
SWIDTH 538 0
DWIDTH 8 0
BBX 6 11 1 0
BITMAP
CC
CC
CC
CC
FC
F4
B4
B4
B4
B4
B4
ENDCHAR
STARTCHAR n
ENCODING 110
SWIDTH 427 0
DWIDTH 6 0
BBX 5 11 1 0
BITMAP
D8
D8
D8
F8
F8
B8
B8
B8
B8
98
98
ENDCHAR
STARTCHAR o
ENCODING 111
SWIDTH 400 0
DWIDTH 6 0
BBX 6 11 0 0
BITMAP
78
78
48
CC
CC
CC
CC
CC
48
78
78
ENDCHAR
STARTCHAR p
ENCODING 112
SWIDTH 386 0
DWIDTH 6 0
BBX 5 11 1 0
BITMAP
F0
F0
90
98
90
F0
E0
80
80
80
80
ENDCHAR
STARTCHAR q
ENCODING 113
SWIDTH 400 0
DWIDTH 6 0
BBX 6 12 0 -1
BITMAP
78
78
48
CC
CC
CC
CC
CC
48
78
7C
0C
ENDCHAR
STARTCHAR r
ENCODING 114
SWIDTH 403 0
DWIDTH 6 0
BBX 5 11 1 0
BITMAP
F0
F0
90
98
90
F0
F0
98
98
98
98
ENDCHAR
STARTCHAR s
ENCODING 115
SWIDTH 372 0
DWIDTH 6 0
BBX 5 11 0 0
BITMAP
70
78
C8
C0
60
30
18
18
C8
F8
70
ENDCHAR
STARTCHAR t
ENCODING 116
SWIDTH 364 0
DWIDTH 5 0
BBX 5 11 0 0
BITMAP
F8
F8
30
30
30
30
30
30
30
30
30
ENDCHAR
STARTCHAR u
ENCODING 117
SWIDTH 402 0
DWIDTH 6 0
BBX 4 11 1 0
BITMAP
90
90
90
90
90
90
90
90
90
F0
F0
ENDCHAR
STARTCHAR v
ENCODING 118
SWIDTH 382 0
DWIDTH 6 0
BBX 6 11 0 0
BITMAP
CC
C8
48
48
58
78
78
70
70
30
30
ENDCHAR
STARTCHAR w
ENCODING 119
SWIDTH 557 0
DWIDTH 8 0
BBX 8 11 0 0
BITMAP
D9
D9
DB
5B
5F
5F
56
56
76
76
76
ENDCHAR
STARTCHAR x
ENCODING 120
SWIDTH 406 0
DWIDTH 6 0
BBX 6 11 0 0
BITMAP
CC
48
78
78
30
30
30
78
78
48
CC
ENDCHAR
STARTCHAR y
ENCODING 121
SWIDTH 394 0
DWIDTH 6 0
BBX 6 11 0 0
BITMAP
CC
48
78
78
30
30
30
30
30
30
30
ENDCHAR
STARTCHAR z
ENCODING 122
SWIDTH 362 0
DWIDTH 5 0
BBX 5 11 0 0
BITMAP
F8
F8
18
10
30
30
60
60
40
F8
F8
ENDCHAR
STARTCHAR braceleft
ENCODING 123
SWIDTH 276 0
DWIDTH 4 0
BBX 4 13 0 -1
BITMAP
30
70
60
60
60
60
C0
E0
60
60
60
70
30
ENDCHAR
STARTCHAR bar
ENCODING 124
SWIDTH 500 0
DWIDTH 8 0
BBX 1 15 3 -3
BITMAP
80
80
80
80
80
80
80
80
80
80
80
80
80
80
80
ENDCHAR
STARTCHAR braceright
ENCODING 125
SWIDTH 276 0
DWIDTH 4 0
BBX 4 13 0 -1
BITMAP
C0
E0
60
60
60
60
30
30
60
60
60
E0
C0
ENDCHAR
STARTCHAR asciitilde
ENCODING 126
SWIDTH 400 0
DWIDTH 6 0
BBX 6 3 0 4
BITMAP
48
7C
98
ENDCHAR
STARTCHAR uni00A0
ENCODING 160
SWIDTH 160 0
DWIDTH 2 0
BBX 1 1 0 0
BITMAP
00
ENDCHAR
STARTCHAR exclamdown
ENCODING 161
SWIDTH 210 0
DWIDTH 3 0
BBX 1 11 1 0
BITMAP
80
80
00
80
80
80
80
80
80
80
80
ENDCHAR
STARTCHAR cent
ENCODING 162
SWIDTH 400 0
DWIDTH 6 0
BBX 4 11 1 0
BITMAP
60
70
F0
90
80
80
90
90
F0
60
60
ENDCHAR
STARTCHAR sterling
ENCODING 163
SWIDTH 400 0
DWIDTH 6 0
BBX 5 11 1 0
BITMAP
F0
F0
98
80
C0
F0
F0
40
40
F0
F0
ENDCHAR
STARTCHAR currency
ENCODING 164
SWIDTH 400 0
DWIDTH 6 0
BBX 6 6 0 2
BITMAP
48
FC
78
78
FC
48
ENDCHAR
STARTCHAR yen
ENCODING 165
SWIDTH 400 0
DWIDTH 6 0
BBX 6 11 0 0
BITMAP
CC
48
68
78
30
30
78
78
78
78
30
ENDCHAR
STARTCHAR brokenbar
ENCODING 166
SWIDTH 500 0
DWIDTH 8 0
BBX 1 15 3 -3
BITMAP
80
80
80
80
80
80
00
00
00
80
80
80
80
80
80
ENDCHAR
STARTCHAR section
ENCODING 167
SWIDTH 400 0
DWIDTH 6 0
BBX 6 13 0 -2
BITMAP
78
78
C8
60
78
5C
CC
C8
78
18
4C
78
78
ENDCHAR
STARTCHAR dieresis
ENCODING 168
SWIDTH 500 0
DWIDTH 8 0
BBX 4 2 2 12
BITMAP
B0
B0
ENDCHAR
STARTCHAR copyright
ENCODING 169
SWIDTH 738 0
DWIDTH 11 0
BBX 11 12 0 0
BITMAP
0400
3F80
60C0
4E40
4E60
8A20
8820
CA20
4E40
6EC0
3F80
1F00
ENDCHAR
STARTCHAR ordfeminine
ENCODING 170
SWIDTH 280 0
DWIDTH 4 0
BBX 4 8 0 3
BITMAP
60
50
10
70
D0
70
00
F0
ENDCHAR
STARTCHAR guillemotleft
ENCODING 171
SWIDTH 336 0
DWIDTH 5 0
BBX 5 4 0 4
BITMAP
78
F0
50
78
ENDCHAR
STARTCHAR logicalnot
ENCODING 172
SWIDTH 400 0
DWIDTH 6 0
BBX 6 4 0 3
BITMAP
FC
FC
0C
0C
ENDCHAR
STARTCHAR uni00AD
ENCODING 173
SWIDTH 270 0
DWIDTH 4 0
BBX 4 2 0 5
BITMAP
F0
F0
ENDCHAR
STARTCHAR registered
ENCODING 174
SWIDTH 738 0
DWIDTH 11 0
BBX 11 12 0 0
BITMAP
0400
3F80
60C0
4E40
4E60
8A20
8E20
CE20
4A40
6AC0
3F80
1F00
ENDCHAR
STARTCHAR macron
ENCODING 175
SWIDTH 500 0
DWIDTH 8 0
BBX 3 2 2 12
BITMAP
E0
E0
ENDCHAR
STARTCHAR degree
ENCODING 176
SWIDTH 400 0
DWIDTH 6 0
BBX 4 4 1 7
BITMAP
60
F0
F0
60
ENDCHAR
STARTCHAR plusminus
ENCODING 177
SWIDTH 400 0
DWIDTH 6 0
BBX 4 6 1 3
BITMAP
60
60
F0
60
60
F0
ENDCHAR
STARTCHAR uni00B2
ENCODING 178
SWIDTH 282 0
DWIDTH 4 0
BBX 3 7 1 5
BITMAP
C0
A0
60
40
80
80
E0
ENDCHAR
STARTCHAR uni00B3
ENCODING 179
SWIDTH 282 0
DWIDTH 4 0
BBX 3 7 1 5
BITMAP
C0
A0
20
40
20
A0
C0
ENDCHAR
STARTCHAR acute
ENCODING 180
SWIDTH 500 0
DWIDTH 8 0
BBX 3 2 3 12
BITMAP
60
C0
ENDCHAR
STARTCHAR uni00B5
ENCODING 181
SWIDTH 405 0
DWIDTH 6 0
BBX 5 11 1 -3
BITMAP
98
98
98
98
98
98
F8
F8
80
80
80
ENDCHAR
STARTCHAR paragraph
ENCODING 182
SWIDTH 449 0
DWIDTH 7 0
BBX 6 13 0 -2
BITMAP
7C
7C
F4
F4
F4
74
14
14
14
14
14
14
14
ENDCHAR
STARTCHAR periodcentered
ENCODING 183
SWIDTH 188 0
DWIDTH 3 0
BBX 1 2 1 5
BITMAP
80
80
ENDCHAR
STARTCHAR cedilla
ENCODING 184
SWIDTH 500 0
DWIDTH 8 0
BBX 3 2 2 -2
BITMAP
60
E0
ENDCHAR
STARTCHAR uni00B9
ENCODING 185
SWIDTH 282 0
DWIDTH 4 0
BBX 2 7 1 5
BITMAP
40
C0
40
40
40
40
40
ENDCHAR
STARTCHAR ordmasculine
ENCODING 186
SWIDTH 282 0
DWIDTH 4 0
BBX 3 8 1 3
BITMAP
C0
A0
A0
A0
A0
C0
00
E0
ENDCHAR
STARTCHAR guillemotright
ENCODING 187
SWIDTH 335 0
DWIDTH 5 0
BBX 5 4 0 4
BITMAP
F0
78
58
F0
ENDCHAR
STARTCHAR onequarter
ENCODING 188
SWIDTH 653 0
DWIDTH 10 0
BBX 8 11 1 0
BITMAP
44
C4
4C
48
49
53
53
15
25
27
61
ENDCHAR
STARTCHAR onehalf
ENCODING 189
SWIDTH 653 0
DWIDTH 10 0
BBX 8 11 1 0
BITMAP
44
C4
4C
4A
4F
55
51
12
24
27
67
ENDCHAR
STARTCHAR threequarters
ENCODING 190
SWIDTH 653 0
DWIDTH 10 0
BBX 8 11 1 0
BITMAP
C4
E4
AC
28
49
33
F3
D5
25
27
61
ENDCHAR
STARTCHAR questiondown
ENCODING 191
SWIDTH 363 0
DWIDTH 5 0
BBX 5 11 0 0
BITMAP
30
30
00
30
30
60
40
C8
C8
F8
70
ENDCHAR
STARTCHAR Agrave
ENCODING 192
SWIDTH 401 0
DWIDTH 6 0
BBX 6 14 0 0
BITMAP
60
30
00
30
30
38
78
78
58
48
48
78
CC
CC
ENDCHAR
STARTCHAR Aacute
ENCODING 193
SWIDTH 401 0
DWIDTH 6 0
BBX 6 14 0 0
BITMAP
18
30
00
30
30
38
78
78
58
48
48
78
CC
CC
ENDCHAR
STARTCHAR Acircumflex
ENCODING 194
SWIDTH 401 0
DWIDTH 6 0
BBX 6 14 0 0
BITMAP
30
78
00
30
30
38
78
78
58
48
48
78
CC
CC
ENDCHAR
STARTCHAR Atilde
ENCODING 195
SWIDTH 401 0
DWIDTH 6 0
BBX 6 14 0 0
BITMAP
78
78
00
30
30
38
78
78
58
48
48
78
CC
CC
ENDCHAR
STARTCHAR Adieresis
ENCODING 196
SWIDTH 401 0
DWIDTH 6 0
BBX 6 14 0 0
BITMAP
78
78
00
30
30
38
78
78
58
48
48
78
CC
CC
ENDCHAR
STARTCHAR Aring
ENCODING 197
SWIDTH 401 0
DWIDTH 6 0
BBX 6 14 0 0
BITMAP
30
30
30
30
30
38
78
78
58
48
48
78
CC
CC
ENDCHAR
STARTCHAR AE
ENCODING 198
SWIDTH 580 0
DWIDTH 9 0
BBX 8 11 0 0
BITMAP
1F
1F
3C
3C
2F
2F
6C
7C
7C
4F
CF
ENDCHAR
STARTCHAR Ccedilla
ENCODING 199
SWIDTH 383 0
DWIDTH 6 0
BBX 4 13 1 -2
BITMAP
F0
F0
90
90
80
80
80
90
90
90
F0
20
E0
ENDCHAR
STARTCHAR Egrave
ENCODING 200
SWIDTH 363 0
DWIDTH 5 0
BBX 4 14 1 0
BITMAP
C0
60
00
F0
F0
80
80
F0
F0
80
80
80
F0
F0
ENDCHAR
STARTCHAR Eacute
ENCODING 201
SWIDTH 363 0
DWIDTH 5 0
BBX 4 14 1 0
BITMAP
30
60
00
F0
F0
80
80
F0
F0
80
80
80
F0
F0
ENDCHAR
STARTCHAR Ecircumflex
ENCODING 202
SWIDTH 363 0
DWIDTH 5 0
BBX 4 14 1 0
BITMAP
60
F0
00
F0
F0
80
80
F0
F0
80
80
80
F0
F0
ENDCHAR
STARTCHAR Edieresis
ENCODING 203
SWIDTH 363 0
DWIDTH 5 0
BBX 4 14 1 0
BITMAP
B0
B0
00
F0
F0
80
80
F0
F0
80
80
80
F0
F0
ENDCHAR
STARTCHAR Igrave
ENCODING 204
SWIDTH 192 0
DWIDTH 3 0
BBX 3 14 -1 0
BITMAP
C0
20
00
20
20
20
20
20
20
20
20
20
20
20
ENDCHAR
STARTCHAR Iacute
ENCODING 205
SWIDTH 192 0
DWIDTH 3 0
BBX 2 14 1 0
BITMAP
40
80
00
80
80
80
80
80
80
80
80
80
80
80
ENDCHAR
STARTCHAR Icircumflex
ENCODING 206
SWIDTH 192 0
DWIDTH 3 0
BBX 4 14 -1 0
BITMAP
70
D0
00
20
20
20
20
20
20
20
20
20
20
20
ENDCHAR
STARTCHAR Idieresis
ENCODING 207
SWIDTH 192 0
DWIDTH 3 0
BBX 3 14 0 0
BITMAP
A0
A0
00
40
40
40
40
40
40
40
40
40
40
40
ENDCHAR
STARTCHAR Eth
ENCODING 208
SWIDTH 423 0
DWIDTH 6 0
BBX 6 11 0 0
BITMAP
78
7C
6C
6C
EC
EC
6C
6C
6C
7C
78
ENDCHAR
STARTCHAR Ntilde
ENCODING 209
SWIDTH 427 0
DWIDTH 6 0
BBX 5 14 1 0
BITMAP
70
F0
00
D8
D8
D8
F8
F8
B8
B8
B8
B8
98
98
ENDCHAR
STARTCHAR Ograve
ENCODING 210
SWIDTH 400 0
DWIDTH 6 0
BBX 6 14 0 0
BITMAP
60
30
00
78
78
48
CC
CC
CC
CC
CC
48
78
78
ENDCHAR
STARTCHAR Oacute
ENCODING 211
SWIDTH 400 0
DWIDTH 6 0
BBX 6 14 0 0
BITMAP
18
30
00
78
78
48
CC
CC
CC
CC
CC
48
78
78
ENDCHAR
STARTCHAR Ocircumflex
ENCODING 212
SWIDTH 400 0
DWIDTH 6 0
BBX 6 14 0 0
BITMAP
30
78
00
78
78
48
CC
CC
CC
CC
CC
48
78
78
ENDCHAR
STARTCHAR Otilde
ENCODING 213
SWIDTH 400 0
DWIDTH 6 0
BBX 6 14 0 0
BITMAP
78
78
00
78
78
48
CC
CC
CC
CC
CC
48
78
78
ENDCHAR
STARTCHAR Odieresis
ENCODING 214
SWIDTH 400 0
DWIDTH 6 0
BBX 6 14 0 0
BITMAP
78
78
00
78
78
48
CC
CC
CC
CC
CC
48
78
78
ENDCHAR
STARTCHAR multiply
ENCODING 215
SWIDTH 400 0
DWIDTH 6 0
BBX 4 5 1 3
BITMAP
90
F0
60
F0
90
ENDCHAR
STARTCHAR Oslash
ENCODING 216
SWIDTH 400 0
DWIDTH 6 0
BBX 6 11 0 0
BITMAP
7C
78
48
DC
DC
FC
EC
EC
48
78
F8
ENDCHAR
STARTCHAR Ugrave
ENCODING 217
SWIDTH 402 0
DWIDTH 6 0
BBX 4 14 1 0
BITMAP
C0
60
00
90
90
90
90
90
90
90
90
90
F0
F0
ENDCHAR
STARTCHAR Uacute
ENCODING 218
SWIDTH 402 0
DWIDTH 6 0
BBX 4 14 1 0
BITMAP
30
60
00
90
90
90
90
90
90
90
90
90
F0
F0
ENDCHAR
STARTCHAR Ucircumflex
ENCODING 219
SWIDTH 402 0
DWIDTH 6 0
BBX 4 14 1 0
BITMAP
60
F0
00
90
90
90
90
90
90
90
90
90
F0
F0
ENDCHAR
STARTCHAR Udieresis
ENCODING 220
SWIDTH 402 0
DWIDTH 6 0
BBX 4 14 1 0
BITMAP
F0
F0
00
90
90
90
90
90
90
90
90
90
F0
F0
ENDCHAR
STARTCHAR Yacute
ENCODING 221
SWIDTH 394 0
DWIDTH 6 0
BBX 6 14 0 0
BITMAP
18
30
00
CC
48
78
78
30
30
30
30
30
30
30
ENDCHAR
STARTCHAR Thorn
ENCODING 222
SWIDTH 386 0
DWIDTH 6 0
BBX 5 11 1 0
BITMAP
80
E0
F0
90
98
90
F0
F0
80
80
80
ENDCHAR
STARTCHAR germandbls
ENCODING 223
SWIDTH 407 0
DWIDTH 6 0
BBX 5 11 1 0
BITMAP
F8
F8
90
B0
A0
B8
98
98
98
B8
B0
ENDCHAR
STARTCHAR agrave
ENCODING 224
SWIDTH 401 0
DWIDTH 6 0
BBX 6 14 0 0
BITMAP
60
30
00
30
30
38
78
78
58
48
48
78
CC
CC
ENDCHAR
STARTCHAR aacute
ENCODING 225
SWIDTH 401 0
DWIDTH 6 0
BBX 6 14 0 0
BITMAP
18
30
00
30
30
38
78
78
58
48
48
78
CC
CC
ENDCHAR
STARTCHAR acircumflex
ENCODING 226
SWIDTH 401 0
DWIDTH 6 0
BBX 6 14 0 0
BITMAP
30
78
00
30
30
38
78
78
58
48
48
78
CC
CC
ENDCHAR
STARTCHAR atilde
ENCODING 227
SWIDTH 401 0
DWIDTH 6 0
BBX 6 14 0 0
BITMAP
78
78
00
30
30
38
78
78
58
48
48
78
CC
CC
ENDCHAR
STARTCHAR adieresis
ENCODING 228
SWIDTH 401 0
DWIDTH 6 0
BBX 6 14 0 0
BITMAP
78
78
00
30
30
38
78
78
58
48
48
78
CC
CC
ENDCHAR
STARTCHAR aring
ENCODING 229
SWIDTH 401 0
DWIDTH 6 0
BBX 6 14 0 0
BITMAP
30
30
30
30
30
38
78
78
58
48
48
78
CC
CC
ENDCHAR
STARTCHAR ae
ENCODING 230
SWIDTH 580 0
DWIDTH 9 0
BBX 8 11 0 0
BITMAP
1F
1F
3C
3C
2F
2F
6C
7C
7C
4F
CF
ENDCHAR
STARTCHAR ccedilla
ENCODING 231
SWIDTH 383 0
DWIDTH 6 0
BBX 4 13 1 -2
BITMAP
F0
F0
90
90
80
80
80
90
90
90
F0
20
E0
ENDCHAR
STARTCHAR egrave
ENCODING 232
SWIDTH 363 0
DWIDTH 5 0
BBX 4 14 1 0
BITMAP
C0
60
00
F0
F0
80
80
F0
F0
80
80
80
F0
F0
ENDCHAR
STARTCHAR eacute
ENCODING 233
SWIDTH 363 0
DWIDTH 5 0
BBX 4 14 1 0
BITMAP
30
60
00
F0
F0
80
80
F0
F0
80
80
80
F0
F0
ENDCHAR
STARTCHAR ecircumflex
ENCODING 234
SWIDTH 363 0
DWIDTH 5 0
BBX 4 14 1 0
BITMAP
60
F0
00
F0
F0
80
80
F0
F0
80
80
80
F0
F0
ENDCHAR
STARTCHAR edieresis
ENCODING 235
SWIDTH 363 0
DWIDTH 5 0
BBX 4 14 1 0
BITMAP
B0
B0
00
F0
F0
80
80
F0
F0
80
80
80
F0
F0
ENDCHAR
STARTCHAR igrave
ENCODING 236
SWIDTH 192 0
DWIDTH 3 0
BBX 3 14 -1 0
BITMAP
C0
20
00
20
20
20
20
20
20
20
20
20
20
20
ENDCHAR
STARTCHAR iacute
ENCODING 237
SWIDTH 192 0
DWIDTH 3 0
BBX 2 14 1 0
BITMAP
40
80
00
80
80
80
80
80
80
80
80
80
80
80
ENDCHAR
STARTCHAR icircumflex
ENCODING 238
SWIDTH 192 0
DWIDTH 3 0
BBX 4 14 -1 0
BITMAP
70
D0
00
20
20
20
20
20
20
20
20
20
20
20
ENDCHAR
STARTCHAR idieresis
ENCODING 239
SWIDTH 192 0
DWIDTH 3 0
BBX 3 14 0 0
BITMAP
A0
A0
00
40
40
40
40
40
40
40
40
40
40
40
ENDCHAR
STARTCHAR eth
ENCODING 240
SWIDTH 423 0
DWIDTH 6 0
BBX 6 11 0 0
BITMAP
78
7C
6C
6C
EC
EC
6C
6C
6C
7C
78
ENDCHAR
STARTCHAR ntilde
ENCODING 241
SWIDTH 427 0
DWIDTH 6 0
BBX 5 14 1 0
BITMAP
70
F0
00
D8
D8
D8
F8
F8
B8
B8
B8
B8
98
98
ENDCHAR
STARTCHAR ograve
ENCODING 242
SWIDTH 400 0
DWIDTH 6 0
BBX 6 14 0 0
BITMAP
60
30
00
78
78
48
CC
CC
CC
CC
CC
48
78
78
ENDCHAR
STARTCHAR oacute
ENCODING 243
SWIDTH 400 0
DWIDTH 6 0
BBX 6 14 0 0
BITMAP
18
30
00
78
78
48
CC
CC
CC
CC
CC
48
78
78
ENDCHAR
STARTCHAR ocircumflex
ENCODING 244
SWIDTH 400 0
DWIDTH 6 0
BBX 6 14 0 0
BITMAP
30
78
00
78
78
48
CC
CC
CC
CC
CC
48
78
78
ENDCHAR
STARTCHAR otilde
ENCODING 245
SWIDTH 400 0
DWIDTH 6 0
BBX 6 14 0 0
BITMAP
78
78
00
78
78
48
CC
CC
CC
CC
CC
48
78
78
ENDCHAR
STARTCHAR odieresis
ENCODING 246
SWIDTH 400 0
DWIDTH 6 0
BBX 6 14 0 0
BITMAP
78
78
00
78
78
48
CC
CC
CC
CC
CC
48
78
78
ENDCHAR
STARTCHAR divide
ENCODING 247
SWIDTH 400 0
DWIDTH 6 0
BBX 6 7 0 2
BITMAP
30
30
00
FC
FC
30
30
ENDCHAR
STARTCHAR oslash
ENCODING 248
SWIDTH 400 0
DWIDTH 6 0
BBX 6 11 0 0
BITMAP
7C
78
48
DC
DC
FC
EC
EC
48
78
F8
ENDCHAR
STARTCHAR ugrave
ENCODING 249
SWIDTH 402 0
DWIDTH 6 0
BBX 4 14 1 0
BITMAP
C0
60
00
90
90
90
90
90
90
90
90
90
F0
F0
ENDCHAR
STARTCHAR uacute
ENCODING 250
SWIDTH 402 0
DWIDTH 6 0
BBX 4 14 1 0
BITMAP
30
60
00
90
90
90
90
90
90
90
90
90
F0
F0
ENDCHAR
STARTCHAR ucircumflex
ENCODING 251
SWIDTH 402 0
DWIDTH 6 0
BBX 4 14 1 0
BITMAP
60
F0
00
90
90
90
90
90
90
90
90
90
F0
F0
ENDCHAR
STARTCHAR udieresis
ENCODING 252
SWIDTH 402 0
DWIDTH 6 0
BBX 4 14 1 0
BITMAP
F0
F0
00
90
90
90
90
90
90
90
90
90
F0
F0
ENDCHAR
STARTCHAR yacute
ENCODING 253
SWIDTH 394 0
DWIDTH 6 0
BBX 6 14 0 0
BITMAP
18
30
00
CC
48
78
78
30
30
30
30
30
30
30
ENDCHAR
STARTCHAR thorn
ENCODING 254
SWIDTH 386 0
DWIDTH 6 0
BBX 5 11 1 0
BITMAP
80
E0
F0
90
98
90
F0
F0
80
80
80
ENDCHAR
STARTCHAR ydieresis
ENCODING 255
SWIDTH 394 0
DWIDTH 6 0
BBX 6 14 0 0
BITMAP
78
78
00
CC
48
78
78
30
30
30
30
30
30
30
ENDCHAR
STARTCHAR Amacron
ENCODING 256
SWIDTH 401 0
DWIDTH 6 0
BBX 6 14 0 0
BITMAP
78
78
00
30
30
38
78
78
58
48
48
78
CC
CC
ENDCHAR
STARTCHAR amacron
ENCODING 257
SWIDTH 401 0
DWIDTH 6 0
BBX 6 14 0 0
BITMAP
78
78
00
30
30
38
78
78
58
48
48
78
CC
CC
ENDCHAR
STARTCHAR Abreve
ENCODING 258
SWIDTH 401 0
DWIDTH 6 0
BBX 6 14 0 0
BITMAP
48
30
00
30
30
38
78
78
58
48
48
78
CC
CC
ENDCHAR
STARTCHAR abreve
ENCODING 259
SWIDTH 401 0
DWIDTH 6 0
BBX 6 14 0 0
BITMAP
48
30
00
30
30
38
78
78
58
48
48
78
CC
CC
ENDCHAR
STARTCHAR Aogonek
ENCODING 260
SWIDTH 401 0
DWIDTH 6 0
BBX 6 14 0 -3
BITMAP
30
30
38
78
78
58
48
48
78
CC
CC
08
1C
08
ENDCHAR
STARTCHAR aogonek
ENCODING 261
SWIDTH 401 0
DWIDTH 6 0
BBX 6 14 0 -3
BITMAP
30
30
38
78
78
58
48
48
78
CC
CC
08
1C
08
ENDCHAR
STARTCHAR Cacute
ENCODING 262
SWIDTH 383 0
DWIDTH 6 0
BBX 4 14 1 0
BITMAP
30
60
00
F0
F0
90
90
80
80
80
90
90
F0
F0
ENDCHAR
STARTCHAR cacute
ENCODING 263
SWIDTH 383 0
DWIDTH 6 0
BBX 4 14 1 0
BITMAP
30
60
00
F0
F0
90
90
80
80
80
90
90
F0
F0
ENDCHAR
STARTCHAR Ccircumflex
ENCODING 264
SWIDTH 383 0
DWIDTH 6 0
BBX 4 14 1 0
BITMAP
60
F0
00
F0
F0
90
90
80
80
80
90
90
F0
F0
ENDCHAR
STARTCHAR ccircumflex
ENCODING 265
SWIDTH 383 0
DWIDTH 6 0
BBX 4 14 1 0
BITMAP
60
F0
00
F0
F0
90
90
80
80
80
90
90
F0
F0
ENDCHAR
STARTCHAR Cdotaccent
ENCODING 266
SWIDTH 383 0
DWIDTH 6 0
BBX 4 14 1 0
BITMAP
60
60
00
F0
F0
90
90
80
80
80
90
90
F0
F0
ENDCHAR
STARTCHAR cdotaccent
ENCODING 267
SWIDTH 383 0
DWIDTH 6 0
BBX 4 14 1 0
BITMAP
60
60
00
F0
F0
90
90
80
80
80
90
90
F0
F0
ENDCHAR
STARTCHAR Ccaron
ENCODING 268
SWIDTH 383 0
DWIDTH 6 0
BBX 4 14 1 0
BITMAP
F0
60
00
F0
F0
90
90
80
80
80
90
90
F0
F0
ENDCHAR
STARTCHAR ccaron
ENCODING 269
SWIDTH 383 0
DWIDTH 6 0
BBX 4 14 1 0
BITMAP
F0
60
00
F0
F0
90
90
80
80
80
90
90
F0
F0
ENDCHAR
STARTCHAR Dcaron
ENCODING 270
SWIDTH 406 0
DWIDTH 6 0
BBX 5 14 1 0
BITMAP
F0
60
00
F0
F0
98
98
98
98
98
98
98
F0
F0
ENDCHAR
STARTCHAR dcaron
ENCODING 271
SWIDTH 406 0
DWIDTH 6 0
BBX 5 14 1 0
BITMAP
F0
60
00
F0
F0
98
98
98
98
98
98
98
F0
F0
ENDCHAR
STARTCHAR Dcroat
ENCODING 272
SWIDTH 423 0
DWIDTH 6 0
BBX 6 11 0 0
BITMAP
78
7C
6C
6C
EC
EC
6C
6C
6C
7C
78
ENDCHAR
STARTCHAR dcroat
ENCODING 273
SWIDTH 423 0
DWIDTH 6 0
BBX 6 11 0 0
BITMAP
78
7C
6C
6C
EC
EC
6C
6C
6C
7C
78
ENDCHAR
STARTCHAR Emacron
ENCODING 274
SWIDTH 363 0
DWIDTH 5 0
BBX 4 14 1 0
BITMAP
F0
F0
00
F0
F0
80
80
F0
F0
80
80
80
F0
F0
ENDCHAR
STARTCHAR emacron
ENCODING 275
SWIDTH 363 0
DWIDTH 5 0
BBX 4 14 1 0
BITMAP
F0
F0
00
F0
F0
80
80
F0
F0
80
80
80
F0
F0
ENDCHAR
STARTCHAR Ebreve
ENCODING 276
SWIDTH 363 0
DWIDTH 5 0
BBX 4 14 1 0
BITMAP
90
E0
00
F0
F0
80
80
F0
F0
80
80
80
F0
F0
ENDCHAR
STARTCHAR ebreve
ENCODING 277
SWIDTH 363 0
DWIDTH 5 0
BBX 4 14 1 0
BITMAP
90
E0
00
F0
F0
80
80
F0
F0
80
80
80
F0
F0
ENDCHAR
STARTCHAR Edotaccent
ENCODING 278
SWIDTH 363 0
DWIDTH 5 0
BBX 4 14 1 0
BITMAP
60
60
00
F0
F0
80
80
F0
F0
80
80
80
F0
F0
ENDCHAR
STARTCHAR edotaccent
ENCODING 279
SWIDTH 363 0
DWIDTH 5 0
BBX 4 14 1 0
BITMAP
60
60
00
F0
F0
80
80
F0
F0
80
80
80
F0
F0
ENDCHAR
STARTCHAR Eogonek
ENCODING 280
SWIDTH 363 0
DWIDTH 5 0
BBX 4 14 1 -3
BITMAP
F0
F0
80
80
F0
F0
80
80
80
F0
F0
20
30
10
ENDCHAR
STARTCHAR eogonek
ENCODING 281
SWIDTH 363 0
DWIDTH 5 0
BBX 4 14 1 -3
BITMAP
F0
F0
80
80
F0
F0
80
80
80
F0
F0
20
30
10
ENDCHAR
STARTCHAR Ecaron
ENCODING 282
SWIDTH 363 0
DWIDTH 5 0
BBX 4 14 1 0
BITMAP
B0
60
00
F0
F0
80
80
F0
F0
80
80
80
F0
F0
ENDCHAR
STARTCHAR ecaron
ENCODING 283
SWIDTH 363 0
DWIDTH 5 0
BBX 4 14 1 0
BITMAP
B0
60
00
F0
F0
80
80
F0
F0
80
80
80
F0
F0
ENDCHAR
STARTCHAR Gcircumflex
ENCODING 284
SWIDTH 391 0
DWIDTH 6 0
BBX 5 14 0 0
BITMAP
30
78
00
78
78
48
C8
C0
D8
D8
C8
48
78
78
ENDCHAR
STARTCHAR gcircumflex
ENCODING 285
SWIDTH 391 0
DWIDTH 6 0
BBX 5 14 0 0
BITMAP
30
78
00
78
78
48
C8
C0
D8
D8
C8
48
78
78
ENDCHAR
STARTCHAR Gbreve
ENCODING 286
SWIDTH 391 0
DWIDTH 6 0
BBX 5 14 0 0
BITMAP
48
30
00
78
78
48
C8
C0
D8
D8
C8
48
78
78
ENDCHAR
STARTCHAR gbreve
ENCODING 287
SWIDTH 391 0
DWIDTH 6 0
BBX 5 14 0 0
BITMAP
48
30
00
78
78
48
C8
C0
D8
D8
C8
48
78
78
ENDCHAR
STARTCHAR Gdotaccent
ENCODING 288
SWIDTH 391 0
DWIDTH 6 0
BBX 5 14 0 0
BITMAP
30
30
00
78
78
48
C8
C0
D8
D8
C8
48
78
78
ENDCHAR
STARTCHAR gdotaccent
ENCODING 289
SWIDTH 391 0
DWIDTH 6 0
BBX 5 14 0 0
BITMAP
30
30
00
78
78
48
C8
C0
D8
D8
C8
48
78
78
ENDCHAR
STARTCHAR uni0122
ENCODING 290
SWIDTH 391 0
DWIDTH 6 0
BBX 5 14 0 -3
BITMAP
78
78
48
C8
C0
D8
D8
C8
48
78
78
30
30
20
ENDCHAR
STARTCHAR uni0123
ENCODING 291
SWIDTH 391 0
DWIDTH 6 0
BBX 5 14 0 -3
BITMAP
78
78
48
C8
C0
D8
D8
C8
48
78
78
30
30
20
ENDCHAR
STARTCHAR Hcircumflex
ENCODING 292
SWIDTH 420 0
DWIDTH 6 0
BBX 5 14 1 0
BITMAP
60
D0
00
98
98
98
98
F8
F8
98
98
98
98
98
ENDCHAR
STARTCHAR hcircumflex
ENCODING 293
SWIDTH 420 0
DWIDTH 6 0
BBX 5 14 1 0
BITMAP
60
D0
00
98
98
98
98
F8
F8
98
98
98
98
98
ENDCHAR
STARTCHAR Hbar
ENCODING 294
SWIDTH 438 0
DWIDTH 7 0
BBX 6 11 0 0
BITMAP
4C
FC
FC
4C
7C
7C
4C
4C
4C
4C
4C
ENDCHAR
STARTCHAR hbar
ENCODING 295
SWIDTH 438 0
DWIDTH 7 0
BBX 6 11 0 0
BITMAP
4C
FC
FC
4C
7C
7C
4C
4C
4C
4C
4C
ENDCHAR
STARTCHAR Itilde
ENCODING 296
SWIDTH 192 0
DWIDTH 3 0
BBX 5 14 -1 0
BITMAP
78
F0
00
20
20
20
20
20
20
20
20
20
20
20
ENDCHAR
STARTCHAR itilde
ENCODING 297
SWIDTH 192 0
DWIDTH 3 0
BBX 5 14 -1 0
BITMAP
78
F0
00
20
20
20
20
20
20
20
20
20
20
20
ENDCHAR
STARTCHAR Imacron
ENCODING 298
SWIDTH 192 0
DWIDTH 3 0
BBX 3 14 0 0
BITMAP
E0
E0
00
40
40
40
40
40
40
40
40
40
40
40
ENDCHAR
STARTCHAR imacron
ENCODING 299
SWIDTH 192 0
DWIDTH 3 0
BBX 3 14 0 0
BITMAP
E0
E0
00
40
40
40
40
40
40
40
40
40
40
40
ENDCHAR
STARTCHAR Ibreve
ENCODING 300
SWIDTH 192 0
DWIDTH 3 0
BBX 3 14 0 0
BITMAP
A0
E0
00
40
40
40
40
40
40
40
40
40
40
40
ENDCHAR
STARTCHAR ibreve
ENCODING 301
SWIDTH 192 0
DWIDTH 3 0
BBX 3 14 0 0
BITMAP
A0
E0
00
40
40
40
40
40
40
40
40
40
40
40
ENDCHAR
STARTCHAR Iogonek
ENCODING 302
SWIDTH 192 0
DWIDTH 3 0
BBX 3 14 0 -3
BITMAP
40
40
40
40
40
40
40
40
40
40
40
40
E0
40
ENDCHAR
STARTCHAR iogonek
ENCODING 303
SWIDTH 192 0
DWIDTH 3 0
BBX 3 14 0 -3
BITMAP
40
40
40
40
40
40
40
40
40
40
40
40
E0
40
ENDCHAR
STARTCHAR Idotaccent
ENCODING 304
SWIDTH 192 0
DWIDTH 3 0
BBX 1 14 1 0
BITMAP
80
80
00
80
80
80
80
80
80
80
80
80
80
80
ENDCHAR
STARTCHAR dotlessi
ENCODING 305
SWIDTH 192 0
DWIDTH 3 0
BBX 1 11 1 0
BITMAP
80
80
80
80
80
80
80
80
80
80
80
ENDCHAR
STARTCHAR IJ
ENCODING 306
SWIDTH 457 0
DWIDTH 7 0
BBX 5 11 1 0
BITMAP
88
88
88
88
88
88
88
88
88
B8
B8
ENDCHAR
STARTCHAR ij
ENCODING 307
SWIDTH 457 0
DWIDTH 7 0
BBX 5 11 1 0
BITMAP
88
88
88
88
88
88
88
88
88
B8
B8
ENDCHAR
STARTCHAR Jcircumflex
ENCODING 308
SWIDTH 265 0
DWIDTH 4 0
BBX 4 14 0 0
BITMAP
60
D0
00
20
20
20
20
20
20
20
20
20
E0
E0
ENDCHAR
STARTCHAR jcircumflex
ENCODING 309
SWIDTH 265 0
DWIDTH 4 0
BBX 4 14 0 0
BITMAP
60
D0
00
20
20
20
20
20
20
20
20
20
E0
E0
ENDCHAR
STARTCHAR uni0136
ENCODING 310
SWIDTH 414 0
DWIDTH 6 0
BBX 5 14 1 -3
BITMAP
98
90
B0
A0
E0
E0
F0
B0
90
98
98
20
20
20
ENDCHAR
STARTCHAR uni0137
ENCODING 311
SWIDTH 414 0
DWIDTH 6 0
BBX 5 14 1 -3
BITMAP
98
90
B0
A0
E0
E0
F0
B0
90
98
98
20
20
20
ENDCHAR
STARTCHAR kgreenlandic
ENCODING 312
SWIDTH 414 0
DWIDTH 6 0
BBX 5 11 1 0
BITMAP
98
90
B0
A0
E0
E0
F0
B0
90
98
98
ENDCHAR
STARTCHAR Lacute
ENCODING 313
SWIDTH 344 0
DWIDTH 5 0
BBX 4 14 1 0
BITMAP
60
80
00
80
80
80
80
80
80
80
80
80
F0
F0
ENDCHAR
STARTCHAR lacute
ENCODING 314
SWIDTH 344 0
DWIDTH 5 0
BBX 4 14 1 0
BITMAP
60
80
00
80
80
80
80
80
80
80
80
80
F0
F0
ENDCHAR
STARTCHAR uni013B
ENCODING 315
SWIDTH 344 0
DWIDTH 5 0
BBX 4 14 1 -3
BITMAP
80
80
80
80
80
80
80
80
80
F0
F0
60
60
40
ENDCHAR
STARTCHAR uni013C
ENCODING 316
SWIDTH 344 0
DWIDTH 5 0
BBX 4 14 1 -3
BITMAP
80
80
80
80
80
80
80
80
80
F0
F0
60
60
40
ENDCHAR
STARTCHAR Lcaron
ENCODING 317
SWIDTH 344 0
DWIDTH 5 0
BBX 4 11 1 0
BITMAP
B0
B0
A0
80
80
80
80
80
80
F0
F0
ENDCHAR
STARTCHAR lcaron
ENCODING 318
SWIDTH 344 0
DWIDTH 5 0
BBX 4 11 1 0
BITMAP
B0
B0
A0
80
80
80
80
80
80
F0
F0
ENDCHAR
STARTCHAR Ldot
ENCODING 319
SWIDTH 343 0
DWIDTH 5 0
BBX 4 11 1 0
BITMAP
80
80
80
80
80
B0
B0
80
80
F0
F0
ENDCHAR
STARTCHAR ldot
ENCODING 320
SWIDTH 343 0
DWIDTH 5 0
BBX 4 11 1 0
BITMAP
80
80
80
80
80
B0
B0
80
80
F0
F0
ENDCHAR
STARTCHAR Lslash
ENCODING 321
SWIDTH 364 0
DWIDTH 5 0
BBX 5 11 0 0
BITMAP
60
60
60
68
70
70
60
E0
E0
78
78
ENDCHAR
STARTCHAR lslash
ENCODING 322
SWIDTH 364 0
DWIDTH 5 0
BBX 5 11 0 0
BITMAP
60
60
60
68
70
70
60
E0
E0
78
78
ENDCHAR
STARTCHAR Nacute
ENCODING 323
SWIDTH 427 0
DWIDTH 6 0
BBX 5 14 1 0
BITMAP
30
60
00
D8
D8
D8
F8
F8
B8
B8
B8
B8
98
98
ENDCHAR
STARTCHAR nacute
ENCODING 324
SWIDTH 427 0
DWIDTH 6 0
BBX 5 14 1 0
BITMAP
30
60
00
D8
D8
D8
F8
F8
B8
B8
B8
B8
98
98
ENDCHAR
STARTCHAR uni0145
ENCODING 325
SWIDTH 427 0
DWIDTH 6 0
BBX 5 14 1 -3
BITMAP
D8
D8
D8
F8
F8
B8
B8
B8
B8
98
98
20
20
20
ENDCHAR
STARTCHAR uni0146
ENCODING 326
SWIDTH 427 0
DWIDTH 6 0
BBX 5 14 1 -3
BITMAP
D8
D8
D8
F8
F8
B8
B8
B8
B8
98
98
20
20
20
ENDCHAR
STARTCHAR Ncaron
ENCODING 327
SWIDTH 427 0
DWIDTH 6 0
BBX 5 14 1 0
BITMAP
D0
60
00
D8
D8
D8
F8
F8
B8
B8
B8
B8
98
98
ENDCHAR
STARTCHAR ncaron
ENCODING 328
SWIDTH 427 0
DWIDTH 6 0
BBX 5 14 1 0
BITMAP
D0
60
00
D8
D8
D8
F8
F8
B8
B8
B8
B8
98
98
ENDCHAR
STARTCHAR napostrophe
ENCODING 329
SWIDTH 542 0
DWIDTH 8 0
BBX 8 11 0 0
BITMAP
FB
FB
BB
3B
3F
3F
37
37
37
37
33
ENDCHAR
STARTCHAR Eng
ENCODING 330
SWIDTH 427 0
DWIDTH 6 0
BBX 5 13 1 -2
BITMAP
D8
D8
D8
F8
B8
B8
B8
B8
98
98
98
18
30
ENDCHAR
STARTCHAR eng
ENCODING 331
SWIDTH 427 0
DWIDTH 6 0
BBX 5 13 1 -2
BITMAP
D8
D8
D8
F8
B8
B8
B8
B8
98
98
98
18
30
ENDCHAR
STARTCHAR Omacron
ENCODING 332
SWIDTH 400 0
DWIDTH 6 0
BBX 6 14 0 0
BITMAP
78
78
00
78
78
48
CC
CC
CC
CC
CC
48
78
78
ENDCHAR
STARTCHAR omacron
ENCODING 333
SWIDTH 400 0
DWIDTH 6 0
BBX 6 14 0 0
BITMAP
78
78
00
78
78
48
CC
CC
CC
CC
CC
48
78
78
ENDCHAR
STARTCHAR Obreve
ENCODING 334
SWIDTH 400 0
DWIDTH 6 0
BBX 6 14 0 0
BITMAP
48
30
00
78
78
48
CC
CC
CC
CC
CC
48
78
78
ENDCHAR
STARTCHAR obreve
ENCODING 335
SWIDTH 400 0
DWIDTH 6 0
BBX 6 14 0 0
BITMAP
48
30
00
78
78
48
CC
CC
CC
CC
CC
48
78
78
ENDCHAR
STARTCHAR Ohungarumlaut
ENCODING 336
SWIDTH 400 0
DWIDTH 6 0
BBX 6 14 0 0
BITMAP
3C
78
00
78
78
48
CC
CC
CC
CC
CC
48
78
78
ENDCHAR
STARTCHAR ohungarumlaut
ENCODING 337
SWIDTH 400 0
DWIDTH 6 0
BBX 6 14 0 0
BITMAP
3C
78
00
78
78
48
CC
CC
CC
CC
CC
48
78
78
ENDCHAR
STARTCHAR OE
ENCODING 338
SWIDTH 577 0
DWIDTH 9 0
BBX 8 11 0 0
BITMAP
7F
7F
48
C8
CF
CF
C8
C8
48
7F
7F
ENDCHAR
STARTCHAR oe
ENCODING 339
SWIDTH 577 0
DWIDTH 9 0
BBX 8 11 0 0
BITMAP
7F
7F
48
C8
CF
CF
C8
C8
48
7F
7F
ENDCHAR
STARTCHAR Racute
ENCODING 340
SWIDTH 403 0
DWIDTH 6 0
BBX 5 14 1 0
BITMAP
30
60
00
F0
F0
90
98
90
F0
F0
98
98
98
98
ENDCHAR
STARTCHAR racute
ENCODING 341
SWIDTH 403 0
DWIDTH 6 0
BBX 5 14 1 0
BITMAP
30
60
00
F0
F0
90
98
90
F0
F0
98
98
98
98
ENDCHAR
STARTCHAR uni0156
ENCODING 342
SWIDTH 403 0
DWIDTH 6 0
BBX 5 14 1 -3
BITMAP
F0
F0
90
98
90
F0
F0
98
98
98
98
60
60
40
ENDCHAR
STARTCHAR uni0157
ENCODING 343
SWIDTH 403 0
DWIDTH 6 0
BBX 5 14 1 -3
BITMAP
F0
F0
90
98
90
F0
F0
98
98
98
98
60
60
40
ENDCHAR
STARTCHAR Rcaron
ENCODING 344
SWIDTH 403 0
DWIDTH 6 0
BBX 5 14 1 0
BITMAP
F0
60
00
F0
F0
90
98
90
F0
F0
98
98
98
98
ENDCHAR
STARTCHAR rcaron
ENCODING 345
SWIDTH 403 0
DWIDTH 6 0
BBX 5 14 1 0
BITMAP
F0
60
00
F0
F0
90
98
90
F0
F0
98
98
98
98
ENDCHAR
STARTCHAR Sacute
ENCODING 346
SWIDTH 372 0
DWIDTH 6 0
BBX 5 14 0 0
BITMAP
18
30
00
70
78
C8
C0
60
30
18
18
C8
F8
70
ENDCHAR
STARTCHAR sacute
ENCODING 347
SWIDTH 372 0
DWIDTH 6 0
BBX 5 14 0 0
BITMAP
18
30
00
70
78
C8
C0
60
30
18
18
C8
F8
70
ENDCHAR
STARTCHAR Scircumflex
ENCODING 348
SWIDTH 372 0
DWIDTH 6 0
BBX 5 14 0 0
BITMAP
30
58
00
70
78
C8
C0
60
30
18
18
C8
F8
70
ENDCHAR
STARTCHAR scircumflex
ENCODING 349
SWIDTH 372 0
DWIDTH 6 0
BBX 5 14 0 0
BITMAP
30
58
00
70
78
C8
C0
60
30
18
18
C8
F8
70
ENDCHAR
STARTCHAR Scedilla
ENCODING 350
SWIDTH 372 0
DWIDTH 6 0
BBX 5 13 0 -2
BITMAP
70
78
C8
C0
60
70
38
18
C8
D8
78
30
70
ENDCHAR
STARTCHAR scedilla
ENCODING 351
SWIDTH 372 0
DWIDTH 6 0
BBX 5 13 0 -2
BITMAP
70
78
C8
C0
60
70
38
18
C8
D8
78
30
70
ENDCHAR
STARTCHAR Scaron
ENCODING 352
SWIDTH 372 0
DWIDTH 6 0
BBX 5 14 0 0
BITMAP
58
30
00
70
78
C8
C0
60
30
18
18
C8
F8
70
ENDCHAR
STARTCHAR scaron
ENCODING 353
SWIDTH 372 0
DWIDTH 6 0
BBX 5 14 0 0
BITMAP
58
30
00
70
78
C8
C0
60
30
18
18
C8
F8
70
ENDCHAR
STARTCHAR uni0162
ENCODING 354
SWIDTH 364 0
DWIDTH 5 0
BBX 5 13 0 -2
BITMAP
F8
F8
30
30
30
30
30
30
30
30
30
30
70
ENDCHAR
STARTCHAR uni0163
ENCODING 355
SWIDTH 364 0
DWIDTH 5 0
BBX 5 13 0 -2
BITMAP
F8
F8
30
30
30
30
30
30
30
30
30
30
70
ENDCHAR
STARTCHAR Tcaron
ENCODING 356
SWIDTH 364 0
DWIDTH 5 0
BBX 5 14 0 0
BITMAP
58
30
00
F8
F8
30
30
30
30
30
30
30
30
30
ENDCHAR
STARTCHAR tcaron
ENCODING 357
SWIDTH 364 0
DWIDTH 5 0
BBX 5 14 0 0
BITMAP
58
30
00
F8
F8
30
30
30
30
30
30
30
30
30
ENDCHAR
STARTCHAR Tbar
ENCODING 358
SWIDTH 364 0
DWIDTH 5 0
BBX 5 11 0 0
BITMAP
F8
F8
30
30
78
78
30
30
30
30
30
ENDCHAR
STARTCHAR tbar
ENCODING 359
SWIDTH 364 0
DWIDTH 5 0
BBX 5 11 0 0
BITMAP
F8
F8
30
30
78
78
30
30
30
30
30
ENDCHAR
STARTCHAR Utilde
ENCODING 360
SWIDTH 402 0
DWIDTH 6 0
BBX 4 14 1 0
BITMAP
F0
F0
00
90
90
90
90
90
90
90
90
90
F0
F0
ENDCHAR
STARTCHAR utilde
ENCODING 361
SWIDTH 402 0
DWIDTH 6 0
BBX 4 14 1 0
BITMAP
F0
F0
00
90
90
90
90
90
90
90
90
90
F0
F0
ENDCHAR
STARTCHAR Umacron
ENCODING 362
SWIDTH 402 0
DWIDTH 6 0
BBX 4 14 1 0
BITMAP
F0
F0
00
90
90
90
90
90
90
90
90
90
F0
F0
ENDCHAR
STARTCHAR umacron
ENCODING 363
SWIDTH 402 0
DWIDTH 6 0
BBX 4 14 1 0
BITMAP
F0
F0
00
90
90
90
90
90
90
90
90
90
F0
F0
ENDCHAR
STARTCHAR Ubreve
ENCODING 364
SWIDTH 402 0
DWIDTH 6 0
BBX 4 14 1 0
BITMAP
90
60
00
90
90
90
90
90
90
90
90
90
F0
F0
ENDCHAR
STARTCHAR ubreve
ENCODING 365
SWIDTH 402 0
DWIDTH 6 0
BBX 4 14 1 0
BITMAP
90
60
00
90
90
90
90
90
90
90
90
90
F0
F0
ENDCHAR
STARTCHAR Uring
ENCODING 366
SWIDTH 402 0
DWIDTH 6 0
BBX 4 14 1 0
BITMAP
60
60
60
90
90
90
90
90
90
90
90
90
F0
F0
ENDCHAR
STARTCHAR uring
ENCODING 367
SWIDTH 402 0
DWIDTH 6 0
BBX 4 14 1 0
BITMAP
60
60
60
90
90
90
90
90
90
90
90
90
F0
F0
ENDCHAR
STARTCHAR Uhungarumlaut
ENCODING 368
SWIDTH 402 0
DWIDTH 6 0
BBX 5 14 1 0
BITMAP
78
F0
00
90
90
90
90
90
90
90
90
90
F0
F0
ENDCHAR
STARTCHAR uhungarumlaut
ENCODING 369
SWIDTH 402 0
DWIDTH 6 0
BBX 5 14 1 0
BITMAP
78
F0
00
90
90
90
90
90
90
90
90
90
F0
F0
ENDCHAR
STARTCHAR Uogonek
ENCODING 370
SWIDTH 402 0
DWIDTH 6 0
BBX 4 14 1 -3
BITMAP
90
90
90
90
90
90
90
90
90
F0
E0
40
60
20
ENDCHAR
STARTCHAR uogonek
ENCODING 371
SWIDTH 402 0
DWIDTH 6 0
BBX 4 14 1 -3
BITMAP
90
90
90
90
90
90
90
90
90
F0
E0
40
60
20
ENDCHAR
STARTCHAR Wcircumflex
ENCODING 372
SWIDTH 557 0
DWIDTH 8 0
BBX 8 14 0 0
BITMAP
18
34
00
D9
D9
DB
5B
5F
5F
56
56
76
76
76
ENDCHAR
STARTCHAR wcircumflex
ENCODING 373
SWIDTH 557 0
DWIDTH 8 0
BBX 8 14 0 0
BITMAP
18
34
00
D9
D9
DB
5B
5F
5F
56
56
76
76
76
ENDCHAR
STARTCHAR Ycircumflex
ENCODING 374
SWIDTH 394 0
DWIDTH 6 0
BBX 6 14 0 0
BITMAP
30
78
00
CC
48
78
78
30
30
30
30
30
30
30
ENDCHAR
STARTCHAR ycircumflex
ENCODING 375
SWIDTH 394 0
DWIDTH 6 0
BBX 6 14 0 0
BITMAP
30
78
00
CC
48
78
78
30
30
30
30
30
30
30
ENDCHAR
STARTCHAR Ydieresis
ENCODING 376
SWIDTH 394 0
DWIDTH 6 0
BBX 6 14 0 0
BITMAP
78
78
00
CC
48
78
78
30
30
30
30
30
30
30
ENDCHAR
STARTCHAR Zacute
ENCODING 377
SWIDTH 362 0
DWIDTH 5 0
BBX 5 14 0 0
BITMAP
18
30
00
F8
F8
18
10
30
30
60
60
40
F8
F8
ENDCHAR
STARTCHAR zacute
ENCODING 378
SWIDTH 362 0
DWIDTH 5 0
BBX 5 14 0 0
BITMAP
18
30
00
F8
F8
18
10
30
30
60
60
40
F8
F8
ENDCHAR
STARTCHAR Zdotaccent
ENCODING 379
SWIDTH 362 0
DWIDTH 5 0
BBX 5 14 0 0
BITMAP
30
30
00
F8
F8
18
10
30
30
60
60
40
F8
F8
ENDCHAR
STARTCHAR zdotaccent
ENCODING 380
SWIDTH 362 0
DWIDTH 5 0
BBX 5 14 0 0
BITMAP
30
30
00
F8
F8
18
10
30
30
60
60
40
F8
F8
ENDCHAR
STARTCHAR Zcaron
ENCODING 381
SWIDTH 362 0
DWIDTH 5 0
BBX 5 14 0 0
BITMAP
58
30
00
F8
F8
18
10
30
30
60
60
40
F8
F8
ENDCHAR
STARTCHAR zcaron
ENCODING 382
SWIDTH 362 0
DWIDTH 5 0
BBX 5 14 0 0
BITMAP
58
30
00
F8
F8
18
10
30
30
60
60
40
F8
F8
ENDCHAR
STARTCHAR florin
ENCODING 402
SWIDTH 400 0
DWIDTH 6 0
BBX 6 12 0 -1
BITMAP
50
F8
F8
6C
68
78
78
6C
6C
FC
F8
50
ENDCHAR
STARTCHAR AEacute
ENCODING 508
SWIDTH 580 0
DWIDTH 9 0
BBX 8 14 0 0
BITMAP
0C
18
00
1F
1F
3C
3C
2F
2F
6C
7C
7C
4F
CF
ENDCHAR
STARTCHAR aeacute
ENCODING 509
SWIDTH 580 0
DWIDTH 9 0
BBX 8 14 0 0
BITMAP
0C
18
00
1F
1F
3C
3C
2F
2F
6C
7C
7C
4F
CF
ENDCHAR
STARTCHAR Oslashacute
ENCODING 510
SWIDTH 400 0
DWIDTH 6 0
BBX 6 14 0 0
BITMAP
18
30
00
7C
78
48
DC
DC
FC
EC
EC
48
78
F8
ENDCHAR
STARTCHAR oslashacute
ENCODING 511
SWIDTH 400 0
DWIDTH 6 0
BBX 6 14 0 0
BITMAP
18
30
00
7C
78
48
DC
DC
FC
EC
EC
48
78
F8
ENDCHAR
STARTCHAR uni0218
ENCODING 536
SWIDTH 372 0
DWIDTH 6 0
BBX 5 14 0 -3
BITMAP
70
78
C8
C0
60
30
18
18
C8
F8
70
20
20
20
ENDCHAR
STARTCHAR uni0219
ENCODING 537
SWIDTH 372 0
DWIDTH 6 0
BBX 5 14 0 -3
BITMAP
70
78
C8
C0
60
30
18
18
C8
F8
70
20
20
20
ENDCHAR
STARTCHAR uni021A
ENCODING 538
SWIDTH 364 0
DWIDTH 5 0
BBX 5 14 0 -3
BITMAP
F8
F8
30
30
30
30
30
30
30
30
30
20
20
20
ENDCHAR
STARTCHAR uni021B
ENCODING 539
SWIDTH 364 0
DWIDTH 5 0
BBX 5 14 0 -3
BITMAP
F8
F8
30
30
30
30
30
30
30
30
30
20
20
20
ENDCHAR
STARTCHAR uni0237
ENCODING 567
SWIDTH 265 0
DWIDTH 4 0
BBX 3 11 0 0
BITMAP
20
20
20
20
20
20
20
20
20
E0
E0
ENDCHAR
STARTCHAR uni02BC
ENCODING 700
SWIDTH 0 0
DWIDTH 0 0
BBX 2 3 -1 8
BITMAP
C0
C0
C0
ENDCHAR
STARTCHAR circumflex
ENCODING 710
SWIDTH 500 0
DWIDTH 8 0
BBX 4 2 2 12
BITMAP
60
B0
ENDCHAR
STARTCHAR caron
ENCODING 711
SWIDTH 500 0
DWIDTH 8 0
BBX 4 2 2 12
BITMAP
B0
60
ENDCHAR
STARTCHAR uni02C9
ENCODING 713
SWIDTH 500 0
DWIDTH 8 0
BBX 3 2 2 12
BITMAP
E0
E0
ENDCHAR
STARTCHAR breve
ENCODING 728
SWIDTH 500 0
DWIDTH 8 0
BBX 4 2 2 12
BITMAP
90
E0
ENDCHAR
STARTCHAR dotaccent
ENCODING 729
SWIDTH 500 0
DWIDTH 8 0
BBX 2 2 3 12
BITMAP
C0
C0
ENDCHAR
STARTCHAR ring
ENCODING 730
SWIDTH 500 0
DWIDTH 8 0
BBX 3 3 2 11
BITMAP
60
E0
60
ENDCHAR
STARTCHAR ogonek
ENCODING 731
SWIDTH 500 0
DWIDTH 8 0
BBX 2 2 3 -2
BITMAP
80
C0
ENDCHAR
STARTCHAR tilde
ENCODING 732
SWIDTH 500 0
DWIDTH 8 0
BBX 4 2 2 12
BITMAP
F0
E0
ENDCHAR
STARTCHAR hungarumlaut
ENCODING 733
SWIDTH 500 0
DWIDTH 8 0
BBX 5 2 2 12
BITMAP
78
B0
ENDCHAR
STARTCHAR gravecomb
ENCODING 768
SWIDTH 0 0
DWIDTH 0 0
BBX 3 2 -2 12
BITMAP
C0
60
ENDCHAR
STARTCHAR acutecomb
ENCODING 769
SWIDTH 0 0
DWIDTH 0 0
BBX 3 2 -1 12
BITMAP
60
C0
ENDCHAR
STARTCHAR uni0302
ENCODING 770
SWIDTH 0 0
DWIDTH 0 0
BBX 4 2 -2 12
BITMAP
60
F0
ENDCHAR
STARTCHAR tildecomb
ENCODING 771
SWIDTH 0 0
DWIDTH 0 0
BBX 4 2 -2 12
BITMAP
F0
F0
ENDCHAR
STARTCHAR uni0304
ENCODING 772
SWIDTH 0 0
DWIDTH 0 0
BBX 4 2 -2 12
BITMAP
F0
F0
ENDCHAR
STARTCHAR uni0306
ENCODING 774
SWIDTH 0 0
DWIDTH 0 0
BBX 4 2 -2 12
BITMAP
90
60
ENDCHAR
STARTCHAR uni0307
ENCODING 775
SWIDTH 0 0
DWIDTH 0 0
BBX 2 2 -1 12
BITMAP
C0
C0
ENDCHAR
STARTCHAR uni0308
ENCODING 776
SWIDTH 0 0
DWIDTH 0 0
BBX 4 2 -2 12
BITMAP
F0
F0
ENDCHAR
STARTCHAR uni030A
ENCODING 778
SWIDTH 0 0
DWIDTH 0 0
BBX 2 3 -1 11
BITMAP
C0
C0
C0
ENDCHAR
STARTCHAR uni030B
ENCODING 779
SWIDTH 0 0
DWIDTH 0 0
BBX 5 2 -2 12
BITMAP
78
F0
ENDCHAR
STARTCHAR uni030C
ENCODING 780
SWIDTH 0 0
DWIDTH 0 0
BBX 4 2 -2 12
BITMAP
F0
60
ENDCHAR
STARTCHAR uni0312
ENCODING 786
SWIDTH 0 0
DWIDTH 0 0
BBX 2 2 -1 12
BITMAP
C0
C0
ENDCHAR
STARTCHAR uni0326
ENCODING 806
SWIDTH 0 0
DWIDTH 0 0
BBX 2 3 -1 -3
BITMAP
C0
C0
80
ENDCHAR
STARTCHAR uni0327
ENCODING 807
SWIDTH 0 0
DWIDTH 0 0
BBX 3 2 -2 -2
BITMAP
20
E0
ENDCHAR
STARTCHAR uni0328
ENCODING 808
SWIDTH 0 0
DWIDTH 0 0
BBX 2 2 -1 -2
BITMAP
C0
C0
ENDCHAR
STARTCHAR uni0335
ENCODING 821
SWIDTH 0 0
DWIDTH 0 0
BBX 4 2 -2 5
BITMAP
F0
F0
ENDCHAR
STARTCHAR uni0336
ENCODING 822
SWIDTH 0 0
DWIDTH 0 0
BBX 6 2 -3 5
BITMAP
FC
FC
ENDCHAR
STARTCHAR uni0337
ENCODING 823
SWIDTH 0 0
DWIDTH 0 0
BBX 6 11 -3 0
BITMAP
04
08
08
10
10
10
20
20
40
40
C0
ENDCHAR
STARTCHAR uni0338
ENCODING 824
SWIDTH 0 0
DWIDTH 0 0
BBX 6 11 -3 0
BITMAP
04
08
08
10
10
10
20
20
40
40
C0
ENDCHAR
STARTCHAR uni0394
ENCODING 916
SWIDTH 401 0
DWIDTH 6 0
BBX 6 11 0 0
BITMAP
30
30
38
78
78
58
48
48
48
FC
FC
ENDCHAR
STARTCHAR uni03A9
ENCODING 937
SWIDTH 402 0
DWIDTH 6 0
BBX 5 11 1 0
BITMAP
F0
F0
98
98
98
98
90
90
90
F8
F8
ENDCHAR
STARTCHAR uni03BC
ENCODING 956
SWIDTH 405 0
DWIDTH 6 0
BBX 5 11 1 -3
BITMAP
98
98
98
98
98
98
F8
F8
80
80
80
ENDCHAR
STARTCHAR pi
ENCODING 960
SWIDTH 452 0
DWIDTH 7 0
BBX 7 8 0 0
BITMAP
FE
FE
6C
6C
6C
6C
6C
6C
ENDCHAR
STARTCHAR uni1E02
ENCODING 7682
SWIDTH 404 0
DWIDTH 6 0
BBX 5 14 1 0
BITMAP
60
60
00
F0
F0
98
98
F0
F0
98
98
98
F8
F0
ENDCHAR
STARTCHAR uni1E03
ENCODING 7683
SWIDTH 404 0
DWIDTH 6 0
BBX 5 14 1 0
BITMAP
60
60
00
F0
F0
98
98
F0
F0
98
98
98
F8
F0
ENDCHAR
STARTCHAR uni1E0A
ENCODING 7690
SWIDTH 406 0
DWIDTH 6 0
BBX 5 14 1 0
BITMAP
60
60
00
F0
F0
98
98
98
98
98
98
98
F0
F0
ENDCHAR
STARTCHAR uni1E0B
ENCODING 7691
SWIDTH 406 0
DWIDTH 6 0
BBX 5 14 1 0
BITMAP
60
60
00
F0
F0
98
98
98
98
98
98
98
F0
F0
ENDCHAR
STARTCHAR uni1E1E
ENCODING 7710
SWIDTH 344 0
DWIDTH 5 0
BBX 4 14 1 0
BITMAP
60
60
00
F0
F0
80
80
80
E0
E0
80
80
80
80
ENDCHAR
STARTCHAR uni1E1F
ENCODING 7711
SWIDTH 344 0
DWIDTH 5 0
BBX 4 14 1 0
BITMAP
60
60
00
F0
F0
80
80
80
E0
E0
80
80
80
80
ENDCHAR
STARTCHAR uni1E40
ENCODING 7744
SWIDTH 538 0
DWIDTH 8 0
BBX 6 14 1 0
BITMAP
30
30
00
CC
CC
CC
CC
FC
F4
B4
B4
B4
B4
B4
ENDCHAR
STARTCHAR uni1E41
ENCODING 7745
SWIDTH 538 0
DWIDTH 8 0
BBX 6 14 1 0
BITMAP
30
30
00
CC
CC
CC
CC
FC
F4
B4
B4
B4
B4
B4
ENDCHAR
STARTCHAR uni1E56
ENCODING 7766
SWIDTH 386 0
DWIDTH 6 0
BBX 5 14 1 0
BITMAP
60
60
00
F0
F0
90
98
90
F0
E0
80
80
80
80
ENDCHAR
STARTCHAR uni1E57
ENCODING 7767
SWIDTH 386 0
DWIDTH 6 0
BBX 5 14 1 0
BITMAP
60
60
00
F0
F0
90
98
90
F0
E0
80
80
80
80
ENDCHAR
STARTCHAR uni1E60
ENCODING 7776
SWIDTH 372 0
DWIDTH 6 0
BBX 5 14 0 0
BITMAP
30
30
00
70
78
C8
C0
60
30
18
18
C8
F8
70
ENDCHAR
STARTCHAR uni1E61
ENCODING 7777
SWIDTH 372 0
DWIDTH 6 0
BBX 5 14 0 0
BITMAP
30
30
00
70
78
C8
C0
60
30
18
18
C8
F8
70
ENDCHAR
STARTCHAR uni1E6A
ENCODING 7786
SWIDTH 364 0
DWIDTH 5 0
BBX 5 14 0 0
BITMAP
20
20
00
F8
F8
30
30
30
30
30
30
30
30
30
ENDCHAR
STARTCHAR uni1E6B
ENCODING 7787
SWIDTH 364 0
DWIDTH 5 0
BBX 5 14 0 0
BITMAP
20
20
00
F8
F8
30
30
30
30
30
30
30
30
30
ENDCHAR
STARTCHAR Wgrave
ENCODING 7808
SWIDTH 557 0
DWIDTH 8 0
BBX 8 14 0 0
BITMAP
30
18
00
D9
D9
DB
5B
5F
5F
56
56
76
76
76
ENDCHAR
STARTCHAR wgrave
ENCODING 7809
SWIDTH 557 0
DWIDTH 8 0
BBX 8 14 0 0
BITMAP
30
18
00
D9
D9
DB
5B
5F
5F
56
56
76
76
76
ENDCHAR
STARTCHAR Wacute
ENCODING 7810
SWIDTH 557 0
DWIDTH 8 0
BBX 8 14 0 0
BITMAP
0C
18
00
D9
D9
DB
5B
5F
5F
56
56
76
76
76
ENDCHAR
STARTCHAR wacute
ENCODING 7811
SWIDTH 557 0
DWIDTH 8 0
BBX 8 14 0 0
BITMAP
0C
18
00
D9
D9
DB
5B
5F
5F
56
56
76
76
76
ENDCHAR
STARTCHAR Wdieresis
ENCODING 7812
SWIDTH 557 0
DWIDTH 8 0
BBX 8 14 0 0
BITMAP
34
34
00
D9
D9
DB
5B
5F
5F
56
56
76
76
76
ENDCHAR
STARTCHAR wdieresis
ENCODING 7813
SWIDTH 557 0
DWIDTH 8 0
BBX 8 14 0 0
BITMAP
34
34
00
D9
D9
DB
5B
5F
5F
56
56
76
76
76
ENDCHAR
STARTCHAR uni1E9E
ENCODING 7838
SWIDTH 407 0
DWIDTH 6 0
BBX 5 11 1 0
BITMAP
F8
F8
90
B0
A0
B8
98
98
98
B8
B0
ENDCHAR
STARTCHAR Ygrave
ENCODING 7922
SWIDTH 394 0
DWIDTH 6 0
BBX 6 14 0 0
BITMAP
60
30
00
CC
48
78
78
30
30
30
30
30
30
30
ENDCHAR
STARTCHAR ygrave
ENCODING 7923
SWIDTH 394 0
DWIDTH 6 0
BBX 6 14 0 0
BITMAP
60
30
00
CC
48
78
78
30
30
30
30
30
30
30
ENDCHAR
STARTCHAR uni2002
ENCODING 8194
SWIDTH 300 0
DWIDTH 5 0
BBX 1 1 0 0
BITMAP
00
ENDCHAR
STARTCHAR uni2003
ENCODING 8195
SWIDTH 500 0
DWIDTH 8 0
BBX 1 1 0 0
BITMAP
00
ENDCHAR
STARTCHAR uni2007
ENCODING 8199
SWIDTH 400 0
DWIDTH 6 0
BBX 1 1 0 0
BITMAP
00
ENDCHAR
STARTCHAR uni2008
ENCODING 8200
SWIDTH 188 0
DWIDTH 3 0
BBX 1 1 0 0
BITMAP
00
ENDCHAR
STARTCHAR uni200B
ENCODING 8203
SWIDTH 0 0
DWIDTH 0 0
BBX 1 1 0 0
BITMAP
00
ENDCHAR
STARTCHAR figuredash
ENCODING 8210
SWIDTH 400 0
DWIDTH 6 0
BBX 6 2 0 5
BITMAP
FC
FC
ENDCHAR
STARTCHAR endash
ENCODING 8211
SWIDTH 300 0
DWIDTH 5 0
BBX 5 2 0 5
BITMAP
F8
F8
ENDCHAR
STARTCHAR emdash
ENCODING 8212
SWIDTH 500 0
DWIDTH 8 0
BBX 8 2 0 5
BITMAP
FF
FF
ENDCHAR
STARTCHAR quoteleft
ENCODING 8216
SWIDTH 188 0
DWIDTH 3 0
BBX 1 4 1 7
BITMAP
80
80
80
80
ENDCHAR
STARTCHAR quoteright
ENCODING 8217
SWIDTH 188 0
DWIDTH 3 0
BBX 1 4 1 7
BITMAP
80
80
80
80
ENDCHAR
STARTCHAR quotesinglbase
ENCODING 8218
SWIDTH 188 0
DWIDTH 3 0
BBX 1 4 1 -2
BITMAP
80
80
80
80
ENDCHAR
STARTCHAR quotedblleft
ENCODING 8220
SWIDTH 336 0
DWIDTH 5 0
BBX 4 4 1 7
BITMAP
B0
A0
A0
A0
ENDCHAR
STARTCHAR quotedblright
ENCODING 8221
SWIDTH 336 0
DWIDTH 5 0
BBX 3 4 1 7
BITMAP
A0
A0
A0
A0
ENDCHAR
STARTCHAR quotedblbase
ENCODING 8222
SWIDTH 336 0
DWIDTH 5 0
BBX 3 4 1 -2
BITMAP
A0
A0
A0
A0
ENDCHAR
STARTCHAR dagger
ENCODING 8224
SWIDTH 400 0
DWIDTH 6 0
BBX 6 12 0 -1
BITMAP
30
30
FC
FC
30
30
30
30
30
30
30
30
ENDCHAR
STARTCHAR daggerdbl
ENCODING 8225
SWIDTH 400 0
DWIDTH 6 0
BBX 6 12 0 -1
BITMAP
30
30
FC
FC
30
30
30
FC
FC
30
30
30
ENDCHAR
STARTCHAR bullet
ENCODING 8226
SWIDTH 300 0
DWIDTH 5 0
BBX 3 4 1 4
BITMAP
C0
E0
E0
C0
ENDCHAR
STARTCHAR ellipsis
ENCODING 8230
SWIDTH 500 0
DWIDTH 8 0
BBX 7 2 0 0
BITMAP
DE
DE
ENDCHAR
STARTCHAR perthousand
ENCODING 8240
SWIDTH 845 0
DWIDTH 13 0
BBX 11 11 1 0
BITMAP
C400
E800
A800
A800
B000
DEE0
1AA0
2AA0
2AA0
4EE0
4EE0
ENDCHAR
STARTCHAR guilsinglleft
ENCODING 8249
SWIDTH 188 0
DWIDTH 3 0
BBX 3 4 0 4
BITMAP
60
C0
40
60
ENDCHAR
STARTCHAR guilsinglright
ENCODING 8250
SWIDTH 188 0
DWIDTH 3 0
BBX 3 4 0 4
BITMAP
C0
60
40
C0
ENDCHAR
STARTCHAR fraction
ENCODING 8260
SWIDTH 89 0
DWIDTH 1 0
BBX 5 11 -2 0
BITMAP
08
08
10
10
10
20
20
40
40
40
80
ENDCHAR
STARTCHAR uni2070
ENCODING 8304
SWIDTH 282 0
DWIDTH 4 0
BBX 3 7 1 5
BITMAP
C0
A0
A0
A0
A0
A0
C0
ENDCHAR
STARTCHAR uni2074
ENCODING 8308
SWIDTH 282 0
DWIDTH 4 0
BBX 4 7 0 5
BITMAP
20
20
60
60
60
F0
20
ENDCHAR
STARTCHAR uni2075
ENCODING 8309
SWIDTH 282 0
DWIDTH 4 0
BBX 3 7 1 5
BITMAP
E0
80
C0
A0
20
A0
C0
ENDCHAR
STARTCHAR uni2076
ENCODING 8310
SWIDTH 282 0
DWIDTH 4 0
BBX 3 7 1 5
BITMAP
C0
A0
80
E0
A0
A0
C0
ENDCHAR
STARTCHAR uni2077
ENCODING 8311
SWIDTH 282 0
DWIDTH 4 0
BBX 3 7 1 5
BITMAP
E0
60
40
40
40
80
80
ENDCHAR
STARTCHAR uni2078
ENCODING 8312
SWIDTH 282 0
DWIDTH 4 0
BBX 4 7 0 5
BITMAP
60
D0
50
60
50
D0
60
ENDCHAR
STARTCHAR uni2079
ENCODING 8313
SWIDTH 282 0
DWIDTH 4 0
BBX 4 7 0 5
BITMAP
60
D0
D0
70
10
50
60
ENDCHAR
STARTCHAR uni2080
ENCODING 8320
SWIDTH 282 0
DWIDTH 4 0
BBX 3 7 1 -1
BITMAP
C0
A0
A0
A0
A0
A0
C0
ENDCHAR
STARTCHAR uni2081
ENCODING 8321
SWIDTH 282 0
DWIDTH 4 0
BBX 2 7 1 -1
BITMAP
40
C0
40
40
40
40
40
ENDCHAR
STARTCHAR uni2082
ENCODING 8322
SWIDTH 282 0
DWIDTH 4 0
BBX 3 7 1 -1
BITMAP
C0
A0
60
40
80
80
E0
ENDCHAR
STARTCHAR uni2083
ENCODING 8323
SWIDTH 282 0
DWIDTH 4 0
BBX 3 7 1 -1
BITMAP
C0
A0
20
40
20
A0
C0
ENDCHAR
STARTCHAR uni2084
ENCODING 8324
SWIDTH 282 0
DWIDTH 4 0
BBX 4 7 0 -1
BITMAP
20
20
60
60
60
F0
20
ENDCHAR
STARTCHAR uni2085
ENCODING 8325
SWIDTH 282 0
DWIDTH 4 0
BBX 3 7 1 -1
BITMAP
E0
80
C0
A0
20
A0
C0
ENDCHAR
STARTCHAR uni2086
ENCODING 8326
SWIDTH 282 0
DWIDTH 4 0
BBX 3 7 1 -1
BITMAP
C0
A0
80
E0
A0
A0
C0
ENDCHAR
STARTCHAR uni2087
ENCODING 8327
SWIDTH 282 0
DWIDTH 4 0
BBX 3 7 1 -1
BITMAP
E0
60
40
40
40
80
80
ENDCHAR
STARTCHAR uni2088
ENCODING 8328
SWIDTH 282 0
DWIDTH 4 0
BBX 4 7 0 -1
BITMAP
60
D0
50
60
50
D0
60
ENDCHAR
STARTCHAR uni2089
ENCODING 8329
SWIDTH 282 0
DWIDTH 4 0
BBX 4 7 0 -1
BITMAP
60
D0
D0
70
10
50
60
ENDCHAR
STARTCHAR Euro
ENCODING 8364
SWIDTH 400 0
DWIDTH 6 0
BBX 6 11 0 0
BITMAP
38
78
4C
40
F8
40
F8
40
4C
78
38
ENDCHAR
STARTCHAR uni20B9
ENCODING 8377
SWIDTH 400 0
DWIDTH 6 0
BBX 6 11 0 0
BITMAP
FC
10
18
FC
18
F0
60
60
30
18
0C
ENDCHAR
STARTCHAR uni20BF
ENCODING 8383
SWIDTH 400 0
DWIDTH 6 0
BBX 6 12 0 -1
BITMAP
50
F8
F8
6C
68
78
78
6C
6C
FC
F8
50
ENDCHAR
STARTCHAR uni2113
ENCODING 8467
SWIDTH 412 0
DWIDTH 6 0
BBX 6 10 0 0
BITMAP
38
6C
6C
6C
78
70
60
EC
6C
38
ENDCHAR
STARTCHAR uni2116
ENCODING 8470
SWIDTH 661 0
DWIDTH 10 0
BBX 8 11 1 0
BITMAP
D0
D0
D0
D3
F7
B5
B5
B5
B7
B7
97
ENDCHAR
STARTCHAR uni2117
ENCODING 8471
SWIDTH 738 0
DWIDTH 11 0
BBX 11 11 0 0
BITMAP
1F00
3080
4040
4E40
8B20
8E20
8820
4840
4840
3080
1F00
ENDCHAR
STARTCHAR uni2120
ENCODING 8480
SWIDTH 599 0
DWIDTH 9 0
BBX 8 6 0 5
BITMAP
6D
AD
4F
2F
AB
6B
ENDCHAR
STARTCHAR trademark
ENCODING 8482
SWIDTH 598 0
DWIDTH 9 0
BBX 8 5 0 6
BITMAP
ED
4D
4F
4F
4B
ENDCHAR
STARTCHAR uni2126
ENCODING 8486
SWIDTH 402 0
DWIDTH 6 0
BBX 5 11 1 0
BITMAP
F0
F0
98
98
98
98
90
90
90
F8
F8
ENDCHAR
STARTCHAR estimated
ENCODING 8494
SWIDTH 821 0
DWIDTH 12 0
BBX 12 11 0 0
BITMAP
0F00
30C0
6020
6020
6030
FFF0
6000
6000
6020
30C0
0F00
ENDCHAR
STARTCHAR uni2153
ENCODING 8531
SWIDTH 653 0
DWIDTH 10 0
BBX 8 11 1 0
BITMAP
44
C4
4C
48
4F
55
51
12
21
25
67
ENDCHAR
STARTCHAR uni2154
ENCODING 8532
SWIDTH 653 0
DWIDTH 10 0
BBX 8 11 1 0
BITMAP
C4
E4
AC
48
4F
95
F1
F2
21
25
67
ENDCHAR
STARTCHAR oneeighth
ENCODING 8539
SWIDTH 653 0
DWIDTH 10 0
BBX 8 11 1 0
BITMAP
44
C4
4C
4A
4F
55
57
17
25
27
67
ENDCHAR
STARTCHAR threeeighths
ENCODING 8540
SWIDTH 653 0
DWIDTH 10 0
BBX 8 11 1 0
BITMAP
C4
E4
AC
2A
4F
35
F7
D7
25
27
67
ENDCHAR
STARTCHAR fiveeighths
ENCODING 8541
SWIDTH 653 0
DWIDTH 10 0
BBX 8 11 1 0
BITMAP
E4
E4
CC
EA
AF
B5
F7
D7
25
27
67
ENDCHAR
STARTCHAR seveneighths
ENCODING 8542
SWIDTH 653 0
DWIDTH 10 0
BBX 8 11 1 0
BITMAP
E4
E4
4C
4A
4F
55
97
97
25
27
67
ENDCHAR
STARTCHAR partialdiff
ENCODING 8706
SWIDTH 428 0
DWIDTH 6 0
BBX 6 10 0 0
BITMAP
38
6C
6C
0C
7C
6C
4C
4C
C8
78
ENDCHAR
STARTCHAR emptyset
ENCODING 8709
SWIDTH 734 0
DWIDTH 11 0
BBX 9 10 1 0
BITMAP
1C80
7F80
E300
C780
8C80
9880
F180
E180
FF00
9E00
ENDCHAR
STARTCHAR uni2206
ENCODING 8710
SWIDTH 401 0
DWIDTH 6 0
BBX 6 11 0 0
BITMAP
30
30
38
78
78
58
48
48
48
FC
FC
ENDCHAR
STARTCHAR product
ENCODING 8719
SWIDTH 465 0
DWIDTH 7 0
BBX 5 13 1 -2
BITMAP
F8
F8
88
88
88
88
88
88
88
88
88
88
88
ENDCHAR
STARTCHAR summation
ENCODING 8721
SWIDTH 411 0
DWIDTH 6 0
BBX 6 13 0 -2
BITMAP
FC
FC
60
60
30
10
18
10
30
20
60
FC
FC
ENDCHAR
STARTCHAR minus
ENCODING 8722
SWIDTH 400 0
DWIDTH 6 0
BBX 6 1 0 5
BITMAP
FC
ENDCHAR
STARTCHAR uni2215
ENCODING 8725
SWIDTH 400 0
DWIDTH 6 0
BBX 6 11 0 0
BITMAP
0C
08
08
18
10
30
20
20
60
40
C0
ENDCHAR
STARTCHAR uni2219
ENCODING 8729
SWIDTH 220 0
DWIDTH 3 0
BBX 2 2 1 4
BITMAP
C0
C0
ENDCHAR
STARTCHAR radical
ENCODING 8730
SWIDTH 475 0
DWIDTH 7 0
BBX 7 12 0 -1
BITMAP
02
06
04
04
04
EC
68
28
28
38
30
30
ENDCHAR
STARTCHAR infinity
ENCODING 8734
SWIDTH 643 0
DWIDTH 10 0
BBX 9 5 0 3
BITMAP
7700
4C80
C880
4C80
7300
ENDCHAR
STARTCHAR integral
ENCODING 8747
SWIDTH 400 0
DWIDTH 6 0
BBX 4 13 1 -2
BITMAP
30
70
60
60
60
60
60
60
60
60
60
60
E0
ENDCHAR
STARTCHAR approxequal
ENCODING 8776
SWIDTH 400 0
DWIDTH 6 0
BBX 6 4 0 3
BITMAP
FC
00
64
98
ENDCHAR
STARTCHAR notequal
ENCODING 8800
SWIDTH 400 0
DWIDTH 6 0
BBX 4 7 1 2
BITMAP
10
10
F0
20
F0
80
80
ENDCHAR
STARTCHAR lessequal
ENCODING 8804
SWIDTH 400 0
DWIDTH 6 0
BBX 4 6 1 2
BITMAP
10
70
C0
70
10
F0
ENDCHAR
STARTCHAR greaterequal
ENCODING 8805
SWIDTH 400 0
DWIDTH 6 0
BBX 4 6 1 2
BITMAP
80
E0
30
E0
80
F0
ENDCHAR
STARTCHAR lozenge
ENCODING 9674
SWIDTH 400 0
DWIDTH 6 0
BBX 6 11 0 0
BITMAP
20
30
30
48
48
CC
48
48
30
30
20
ENDCHAR
STARTCHAR circle
ENCODING 9675
SWIDTH 738 0
DWIDTH 11 0
BBX 11 11 0 0
BITMAP
1F00
2080
4040
4040
8020
8020
8020
4040
4040
2080
1F00
ENDCHAR
STARTCHAR uniE0FF
ENCODING 57599
SWIDTH 500 0
DWIDTH 8 0
BBX 1 1 0 0
BITMAP
00
ENDCHAR
STARTCHAR uniEFFD
ENCODING 61437
SWIDTH 500 0
DWIDTH 8 0
BBX 1 1 0 0
BITMAP
00
ENDCHAR
STARTCHAR uniF000
ENCODING 61440
SWIDTH 500 0
DWIDTH 8 0
BBX 1 1 0 0
BITMAP
00
ENDCHAR
STARTCHAR uniF8FF
ENCODING 63743
SWIDTH 634 0
DWIDTH 10 0
BBX 9 9 0 1
BITMAP
0600
0600
3F80
7F80
E600
E600
E600
7E00
3C00
ENDCHAR
STARTCHAR .notdef
ENCODING -1
SWIDTH 738 0
DWIDTH 11 0
BBX 9 11 1 0
BITMAP
FF80
C180
C180
A280
9480
8880
9480
A280
C180
C180
FF80
ENDCHAR
STARTCHAR NULL
ENCODING -1
SWIDTH 0 0
DWIDTH 0 0
BBX 1 1 0 0
BITMAP
00
ENDCHAR
STARTCHAR uni00A40301
ENCODING -1
SWIDTH 265 0
DWIDTH 4 0
BBX 4 14 0 0
BITMAP
30
60
00
20
20
20
20
20
20
20
20
20
E0
E0
ENDCHAR
STARTCHAR i.loclTRK
ENCODING -1
SWIDTH 192 0
DWIDTH 3 0
BBX 1 14 1 0
BITMAP
80
80
00
80
80
80
80
80
80
80
80
80
80
80
ENDCHAR
STARTCHAR uni006A0301
ENCODING -1
SWIDTH 265 0
DWIDTH 4 0
BBX 4 14 0 0
BITMAP
30
60
00
20
20
20
20
20
20
20
20
20
E0
E0
ENDCHAR
STARTCHAR zero.lf
ENCODING -1
SWIDTH 400 0
DWIDTH 6 0
BBX 6 11 0 0
BITMAP
78
78
48
CC
CC
CC
CC
CC
48
78
78
ENDCHAR
STARTCHAR one.lf
ENCODING -1
SWIDTH 291 0
DWIDTH 4 0
BBX 4 11 0 0
BITMAP
30
F0
F0
30
30
30
30
30
30
30
30
ENDCHAR
STARTCHAR two.lf
ENCODING -1
SWIDTH 372 0
DWIDTH 6 0
BBX 5 11 0 0
BITMAP
70
78
C8
C8
18
30
30
60
40
F8
F8
ENDCHAR
STARTCHAR three.lf
ENCODING -1
SWIDTH 374 0
DWIDTH 6 0
BBX 5 11 0 0
BITMAP
70
78
C8
08
38
38
18
C8
C8
F8
70
ENDCHAR
STARTCHAR four.lf
ENCODING -1
SWIDTH 398 0
DWIDTH 6 0
BBX 6 11 0 0
BITMAP
18
18
38
38
78
58
58
FC
FC
18
18
ENDCHAR
STARTCHAR five.lf
ENCODING -1
SWIDTH 382 0
DWIDTH 6 0
BBX 5 11 0 0
BITMAP
78
78
40
50
F8
C8
08
C8
C8
78
70
ENDCHAR
STARTCHAR six.lf
ENCODING -1
SWIDTH 393 0
DWIDTH 6 0
BBX 6 11 0 0
BITMAP
78
78
48
C0
F8
F8
CC
CC
48
78
78
ENDCHAR
STARTCHAR seven.lf
ENCODING -1
SWIDTH 356 0
DWIDTH 5 0
BBX 5 11 0 0
BITMAP
F8
F8
18
18
10
30
30
20
20
60
60
ENDCHAR
STARTCHAR eight.lf
ENCODING -1
SWIDTH 396 0
DWIDTH 6 0
BBX 6 11 0 0
BITMAP
78
78
C8
C8
78
78
C8
CC
CC
78
78
ENDCHAR
STARTCHAR nine.lf
ENCODING -1
SWIDTH 393 0
DWIDTH 6 0
BBX 5 11 0 0
BITMAP
78
78
C8
C8
C8
F8
68
08
C8
78
78
ENDCHAR
STARTCHAR zero.dnom
ENCODING -1
SWIDTH 282 0
DWIDTH 4 0
BBX 3 8 1 0
BITMAP
40
E0
A0
A0
A0
A0
E0
C0
ENDCHAR
STARTCHAR one.dnom
ENCODING -1
SWIDTH 282 0
DWIDTH 4 0
BBX 2 7 1 0
BITMAP
40
C0
40
40
40
40
40
ENDCHAR
STARTCHAR two.dnom
ENCODING -1
SWIDTH 282 0
DWIDTH 4 0
BBX 3 8 1 0
BITMAP
40
E0
A0
40
40
80
E0
E0
ENDCHAR
STARTCHAR three.dnom
ENCODING -1
SWIDTH 282 0
DWIDTH 4 0
BBX 3 7 1 0
BITMAP
C0
A0
20
40
20
A0
C0
ENDCHAR
STARTCHAR four.dnom
ENCODING -1
SWIDTH 282 0
DWIDTH 4 0
BBX 4 7 0 0
BITMAP
20
20
60
60
60
F0
20
ENDCHAR
STARTCHAR five.dnom
ENCODING -1
SWIDTH 282 0
DWIDTH 4 0
BBX 3 7 1 0
BITMAP
E0
80
C0
A0
20
A0
C0
ENDCHAR
STARTCHAR six.dnom
ENCODING -1
SWIDTH 282 0
DWIDTH 4 0
BBX 3 8 1 0
BITMAP
40
E0
A0
C0
E0
A0
E0
C0
ENDCHAR
STARTCHAR seven.dnom
ENCODING -1
SWIDTH 282 0
DWIDTH 4 0
BBX 3 7 1 0
BITMAP
E0
E0
40
40
40
80
80
ENDCHAR
STARTCHAR eight.dnom
ENCODING -1
SWIDTH 282 0
DWIDTH 4 0
BBX 4 8 0 0
BITMAP
20
70
D0
70
60
D0
F0
60
ENDCHAR
STARTCHAR nine.dnom
ENCODING -1
SWIDTH 282 0
DWIDTH 4 0
BBX 4 8 0 0
BITMAP
20
70
D0
D0
70
50
70
60
ENDCHAR
STARTCHAR zero.numr
ENCODING -1
SWIDTH 282 0
DWIDTH 4 0
BBX 3 8 1 3
BITMAP
C0
E0
A0
A0
A0
A0
E0
C0
ENDCHAR
STARTCHAR one.numr
ENCODING -1
SWIDTH 282 0
DWIDTH 4 0
BBX 2 7 1 4
BITMAP
40
C0
40
40
40
40
40
ENDCHAR
STARTCHAR two.numr
ENCODING -1
SWIDTH 282 0
DWIDTH 4 0
BBX 3 8 1 3
BITMAP
C0
E0
A0
40
40
80
E0
E0
ENDCHAR
STARTCHAR three.numr
ENCODING -1
SWIDTH 282 0
DWIDTH 4 0
BBX 3 8 1 3
BITMAP
C0
E0
A0
20
40
20
E0
C0
ENDCHAR
STARTCHAR four.numr
ENCODING -1
SWIDTH 282 0
DWIDTH 4 0
BBX 4 7 0 4
BITMAP
20
20
60
60
60
F0
20
ENDCHAR
STARTCHAR five.numr
ENCODING -1
SWIDTH 282 0
DWIDTH 4 0
BBX 3 8 1 3
BITMAP
E0
E0
C0
E0
A0
A0
E0
C0
ENDCHAR
STARTCHAR six.numr
ENCODING -1
SWIDTH 282 0
DWIDTH 4 0
BBX 3 8 1 3
BITMAP
C0
E0
80
C0
E0
A0
E0
C0
ENDCHAR
STARTCHAR seven.numr
ENCODING -1
SWIDTH 282 0
DWIDTH 4 0
BBX 3 8 1 3
BITMAP
E0
E0
40
40
40
40
80
80
ENDCHAR
STARTCHAR eight.numr
ENCODING -1
SWIDTH 282 0
DWIDTH 4 0
BBX 4 8 0 3
BITMAP
60
70
D0
50
60
70
F0
60
ENDCHAR
STARTCHAR nine.numr
ENCODING -1
SWIDTH 282 0
DWIDTH 4 0
BBX 4 8 0 3
BITMAP
60
70
D0
D0
70
50
70
60
ENDCHAR
STARTCHAR uni030C.alt
ENCODING -1
SWIDTH 0 0
DWIDTH 0 0
BBX 2 3 -1 8
BITMAP
C0
C0
80
ENDCHAR
ENDFONT
